<svg xmlns="http://www.w3.org/2000/svg" width="351" height="328" viewBox="0 0 351 328" fill="none"><g clip-path="url(#clip0_1_213)"><path d="M126.102 94.5769C124.268 94.5769 122.768 93.0757 122.768 91.2408C122.768 89.406 124.268 87.9048 126.102 87.9048C127.936 87.9048 129.436 89.406 129.436 91.2408C129.436 93.0757 127.936 94.5769 126.102 94.5769ZM126.102 89.2726C125.002 89.2726 124.101 90.1733 124.101 91.2408C124.101 92.3084 125.002 93.2425 126.102 93.2425C127.202 93.2425 128.102 92.3417 128.102 91.2408C128.102 90.14 127.202 89.2726 126.102 89.2726Z" fill="black"></path><path d="M126.102 84.6021C124.268 84.6021 122.768 83.1009 122.768 81.2661V43.6688C122.768 41.834 124.268 40.3328 126.102 40.3328C127.936 40.3328 129.436 41.834 129.436 43.6688V81.2661C129.436 83.1009 127.936 84.6021 126.102 84.6021ZM126.102 41.7006C125.002 41.7006 124.101 42.6013 124.101 43.7022V81.2994C124.101 82.4003 125.002 83.3011 126.102 83.3011C127.202 83.3011 128.102 82.4003 128.102 81.2994V43.7022C128.102 42.6013 127.202 41.7006 126.102 41.7006Z" fill="#00A151"></path><path d="M347.7 141.081C345.866 141.081 344.365 139.58 344.365 137.745C344.365 135.911 345.866 134.409 347.7 134.409C349.533 134.409 351.034 135.911 351.034 137.745C351.034 139.58 349.533 141.081 347.7 141.081ZM347.7 135.777C346.599 135.777 345.699 136.678 345.699 137.779C345.699 138.88 346.599 139.78 347.7 139.78C348.8 139.78 349.7 138.88 349.7 137.779C349.7 136.678 348.8 135.777 347.7 135.777Z" fill="black"></path><path d="M347.7 188.62C345.866 188.62 344.365 187.119 344.365 185.284V147.687C344.365 145.852 345.866 144.351 347.7 144.351C349.533 144.351 351.034 145.852 351.034 147.687V185.284C351.034 187.119 349.533 188.62 347.7 188.62ZM347.7 145.718C346.599 145.718 345.699 146.619 345.699 147.72V185.317C345.699 186.418 346.599 187.319 347.7 187.319C348.8 187.319 349.7 186.418 349.7 185.317V147.72C349.7 146.619 348.8 145.718 347.7 145.718Z" fill="#1F7AFF"></path><path d="M103.229 182.615C103.229 182.148 103.595 181.781 104.062 181.781C104.496 181.781 104.896 182.148 104.896 182.615C104.896 183.082 104.496 183.449 104.062 183.449C103.595 183.449 103.229 183.082 103.229 182.615ZM103.229 178.278C103.229 177.811 103.595 177.444 104.062 177.444C104.496 177.444 104.896 177.811 104.896 178.278C104.896 178.745 104.496 179.112 104.062 179.112C103.595 179.112 103.229 178.745 103.229 178.278ZM103.229 173.941C103.229 173.474 103.595 173.107 104.062 173.107C104.496 173.107 104.896 173.474 104.896 173.941C104.896 174.408 104.496 174.775 104.062 174.775C103.595 174.775 103.229 174.408 103.229 173.941ZM103.229 169.605C103.229 169.138 103.595 168.771 104.062 168.771C104.496 168.771 104.896 169.138 104.896 169.605C104.896 170.072 104.496 170.439 104.062 170.439C103.595 170.439 103.229 170.072 103.229 169.605ZM103.229 165.268C103.229 164.801 103.595 164.434 104.062 164.434C104.496 164.434 104.896 164.801 104.896 165.268C104.896 165.735 104.496 166.102 104.062 166.102C103.595 166.102 103.229 165.735 103.229 165.268ZM103.229 160.931C103.229 160.464 103.595 160.097 104.062 160.097C104.496 160.097 104.896 160.464 104.896 160.931C104.896 161.398 104.496 161.765 104.062 161.765C103.595 161.765 103.229 161.398 103.229 160.931ZM103.229 156.594C103.229 156.127 103.595 155.76 104.062 155.76C104.496 155.76 104.896 156.127 104.896 156.594C104.896 157.061 104.496 157.428 104.062 157.428C103.595 157.428 103.229 157.061 103.229 156.594ZM103.229 152.257C103.229 151.79 103.595 151.423 104.062 151.423C104.496 151.423 104.896 151.79 104.896 152.257C104.896 152.724 104.496 153.091 104.062 153.091C103.595 153.091 103.229 152.724 103.229 152.257ZM103.229 147.92C103.229 147.453 103.595 147.086 104.062 147.086C104.496 147.086 104.896 147.453 104.896 147.92C104.896 148.387 104.496 148.754 104.062 148.754C103.595 148.754 103.229 148.387 103.229 147.92ZM103.229 143.583C103.229 143.116 103.595 142.749 104.062 142.749C104.496 142.749 104.896 143.116 104.896 143.583C104.896 144.05 104.496 144.417 104.062 144.417C103.595 144.417 103.229 144.05 103.229 143.583ZM103.229 139.247C103.229 138.78 103.595 138.413 104.062 138.413C104.496 138.413 104.896 138.78 104.896 139.247C104.896 139.714 104.496 140.081 104.062 140.081C103.595 140.081 103.229 139.714 103.229 139.247Z" fill="#00509B"></path><path d="M242.337 216.109C242.337 215.642 242.737 215.242 243.17 215.242C243.637 215.242 244.004 215.642 244.004 216.109C244.004 216.543 243.637 216.91 243.17 216.91C242.737 216.91 242.337 216.543 242.337 216.109ZM238.002 216.109C238.002 215.642 238.402 215.242 238.836 215.242C239.302 215.242 239.669 215.642 239.669 216.109C239.669 216.543 239.302 216.91 238.836 216.91C238.402 216.91 238.002 216.543 238.002 216.109ZM246.571 215.976C246.571 215.509 246.938 215.142 247.405 215.142C247.871 215.142 248.238 215.509 248.238 215.976C248.238 216.443 247.871 216.81 247.405 216.81C246.938 216.81 246.571 216.443 246.571 215.976ZM246.571 211.639C246.571 211.172 246.938 210.805 247.405 210.805C247.871 210.805 248.238 211.172 248.238 211.639C248.238 212.106 247.871 212.473 247.405 212.473C246.938 212.473 246.571 212.106 246.571 211.639ZM246.571 207.302C246.571 206.835 246.938 206.468 247.405 206.468C247.871 206.468 248.238 206.835 248.238 207.302C248.238 207.769 247.871 208.136 247.405 208.136C246.938 208.136 246.571 207.769 246.571 207.302ZM246.571 202.965C246.571 202.531 246.938 202.131 247.405 202.131C247.871 202.131 248.238 202.531 248.238 202.965C248.238 203.432 247.871 203.799 247.405 203.799C246.938 203.799 246.571 203.432 246.571 202.965ZM246.571 198.628C246.571 198.161 246.938 197.794 247.405 197.794C247.871 197.794 248.238 198.161 248.238 198.628C248.238 199.095 247.871 199.462 247.405 199.462C246.938 199.462 246.571 199.095 246.571 198.628ZM246.571 194.291C246.571 193.824 246.938 193.457 247.405 193.457C247.871 193.457 248.238 193.824 248.238 194.291C248.238 194.758 247.871 195.125 247.405 195.125C246.938 195.125 246.571 194.758 246.571 194.291ZM246.571 189.954C246.571 189.487 246.938 189.12 247.405 189.12C247.871 189.12 248.238 189.487 248.238 189.954C248.238 190.421 247.871 190.788 247.405 190.788C246.938 190.788 246.571 190.421 246.571 189.954ZM246.571 185.618C246.571 185.151 246.938 184.784 247.405 184.784C247.871 184.784 248.238 185.151 248.238 185.618C248.238 186.085 247.871 186.452 247.405 186.452C246.938 186.452 246.571 186.085 246.571 185.618ZM246.571 181.281C246.571 180.847 246.938 180.447 247.405 180.447C247.871 180.447 248.238 180.847 248.238 181.281C248.238 181.748 247.871 182.115 247.405 182.115C246.938 182.115 246.571 181.748 246.571 181.281ZM246.571 176.944C246.571 176.477 246.938 176.11 247.405 176.11C247.871 176.11 248.238 176.477 248.238 176.944C248.238 177.411 247.871 177.778 247.405 177.778C246.938 177.778 246.571 177.411 246.571 176.944ZM246.571 172.607C246.571 172.14 246.938 171.773 247.405 171.773C247.871 171.773 248.238 172.14 248.238 172.607C248.238 173.074 247.871 173.441 247.405 173.441C246.938 173.441 246.571 173.074 246.571 172.607Z" fill="#00509B"></path><path d="M57.349 319.76C73.7381 319.76 87.0241 306.467 87.0241 290.069C87.0241 273.671 73.7381 260.378 57.349 260.378C40.9598 260.378 27.6738 273.671 27.6738 290.069C27.6738 306.467 40.9598 319.76 57.349 319.76Z" fill="#1F7AFF"></path><path d="M163.514 219.245H163.848L163.747 219.478L163.514 219.378L163.414 219.345L163.447 219.245L163.514 219.111V219.245Z" fill="#002B6E"></path><path d="M159.879 219.245L163.513 210.238V211.272L160.279 219.245L160.179 219.478L159.846 219.345L159.879 219.245Z" fill="#002B6E"></path><path d="M163.647 202.131L163.613 202.231L163.513 202.431L156.545 219.245L156.445 219.478L156.111 219.345L156.145 219.245L163.18 202.231L163.28 201.964L163.513 202.064L163.647 202.131Z" fill="#002B6E"></path><path d="M159.902 201.982L152.547 219.335L152.885 219.478L160.239 202.125L159.902 201.982Z" fill="#002B6E"></path><path d="M156.454 201.948L148.949 219.309L149.286 219.454L156.791 202.093L156.454 201.948Z" fill="#002B6E"></path><path d="M153.048 202.006L145.402 219.342L145.738 219.49L153.384 202.154L153.048 202.006Z" fill="#002B6E"></path><path d="M142.173 219.478L141.84 219.345L149.675 201.964L150.009 202.131L142.173 219.478Z" fill="#002B6E"></path><path d="M138.607 219.478L138.273 219.345L146.242 201.964L146.576 202.131L138.607 219.478Z" fill="#002B6E"></path><path d="M135.039 219.478L134.705 219.345L142.841 201.964L143.174 202.131L135.039 219.478Z" fill="#002B6E"></path><path d="M139.391 201.966L131.129 219.313L131.46 219.471L139.722 202.124L139.391 201.966Z" fill="#002B6E"></path><path d="M127.87 219.478L127.57 219.312L136.039 201.964L136.339 202.131L127.87 219.478Z" fill="#002B6E"></path><path d="M124.302 219.478L124.002 219.312L132.604 201.964L132.904 202.131L124.302 219.478Z" fill="#002B6E"></path><path d="M120.734 219.478L120.4 219.312L129.203 201.964L129.536 202.131L120.734 219.478Z" fill="#002B6E"></path><path d="M117.167 219.478L116.834 219.312L125.77 201.964L126.103 202.131L117.167 219.478Z" fill="#002B6E"></path><path d="M113.599 219.478L113.266 219.312L122.402 201.964L122.702 202.131L113.599 219.478Z" fill="#002B6E"></path><path d="M110.031 219.478L109.697 219.312L118.967 201.964L119.3 202.131L110.031 219.478Z" fill="#002B6E"></path><path d="M106.464 219.478L106.131 219.312L115.534 201.964L115.867 202.131L106.464 219.478Z" fill="#002B6E"></path><path d="M102.896 219.478L102.562 219.312L112.132 201.964L112.465 202.131L102.896 219.478Z" fill="#002B6E"></path><path d="M99.3276 219.512L98.9941 219.312L108.764 201.964L109.064 202.131L99.3276 219.512Z" fill="#002B6E"></path><path d="M95.7612 219.512L95.4277 219.312L105.331 201.964L105.664 202.131L95.7612 219.512Z" fill="#002B6E"></path><path d="M101.914 201.975L91.873 219.326L92.1905 219.51L102.231 202.159L101.914 201.975Z" fill="#002B6E"></path><path d="M98.5063 201.92L88.291 219.285L88.6071 219.472L98.8224 202.106L98.5063 201.92Z" fill="#002B6E"></path><path d="M95.0913 201.942L84.7148 219.289L85.0296 219.477L95.4061 202.13L95.0913 201.942Z" fill="#002B6E"></path><path d="M81.4563 219.512L81.1562 219.312L91.6926 201.964L92.026 202.164L81.4563 219.512Z" fill="#002B6E"></path><path d="M77.888 219.512L77.5879 219.312L88.2909 201.964L88.591 202.164L77.888 219.512Z" fill="#002B6E"></path><path d="M74.2884 219.512L73.9883 219.312L84.858 201.964L85.1581 202.164L74.2884 219.512Z" fill="#002B6E"></path><path d="M70.7532 219.512L70.4531 219.312L81.4563 201.964L81.7897 202.164L70.7532 219.512Z" fill="#002B6E"></path><path d="M67.3524 219.245L78.3222 202.231H163.613V202.131L163.513 202.064V201.864H78.1221L66.6855 219.612H163.513V219.378L163.747 219.478L163.847 219.245H67.3524Z" fill="#002B6E"></path><path d="M175.85 167.77L178.917 170.572L179.284 173.775L174.916 176.11L174.883 169.838L175.85 167.77Z" fill="#D47036"></path><path d="M149.509 176.01L153.377 174.475L154.878 171.606L151.643 167.87L148.643 171.239L149.509 176.01Z" fill="#D47036"></path><path d="M94.86 264.982V311.82C94.1932 311.553 93.5263 311.22 92.8594 310.853C91.7258 310.352 90.6255 309.785 89.5252 309.218C88.8583 308.884 88.1914 308.551 87.5246 308.184C76.8882 302.546 66.9187 295.74 57.8828 287.934V251.338C57.8828 248.969 59.7833 247.034 62.1507 246.967C68.4858 246.867 80.4226 247.435 87.9914 252.472C89.8586 253.706 91.4924 255.207 92.6594 257.042C93.1262 257.743 93.493 258.477 93.8264 259.277C94.4932 260.945 94.86 262.847 94.86 264.982Z" fill="#D3D3D3"></path><path d="M269.944 251.338V287.934C268.21 289.435 266.41 290.903 264.609 292.338C262.108 294.306 259.541 296.207 256.94 298.009C250.205 302.713 243.103 306.883 235.668 310.552C234.767 310.986 233.867 311.42 232.967 311.854V264.982C232.967 262.347 233.5 260.111 234.534 258.21H234.567C234.734 257.71 234.967 257.343 235.267 256.909C236.334 255.308 237.701 253.94 239.302 252.839C246.837 247.468 259.208 246.867 265.676 246.967C268.043 247.034 269.944 248.969 269.944 251.338Z" fill="#D3D3D3"></path><path d="M235.5 302.079C235.5 305.048 234.467 307.717 232.7 309.652C231.032 311.52 228.698 312.721 226.131 312.754L167.281 313.688L102.462 314.022C98.0278 314.022 94.2934 310.686 93.2264 306.149C93.0264 305.315 92.893 304.414 92.893 303.48L92.6263 250.771L92.3262 189.587C92.3262 183.716 96.5607 178.912 101.829 178.912H225.397C230.632 178.912 234.867 183.616 234.9 189.454L235.167 243.531L235.467 302.112L235.5 302.079Z" fill="#D3D3D3"></path><path d="M230.633 231.355L230.433 192.89C230.433 187.552 226.498 183.216 221.73 183.216H105.597C103.43 183.216 101.396 184.083 99.7954 185.718C97.9615 187.586 96.8945 190.221 96.9279 192.99L97.0946 226.584H96.5944L96.4277 192.99C96.4277 190.088 97.528 187.319 99.4619 185.351C101.162 183.649 103.33 182.715 105.63 182.715H221.763C226.798 182.715 230.933 187.286 230.933 192.857L231.133 231.321H230.633V231.355Z" fill="#FFE9C7"></path><path d="M177.117 151.723L163.613 156.994L149.909 153.658C149.909 153.658 153.477 172.54 149.609 178.345L163.613 190.955L178.117 178.445C174.25 172.64 177.117 151.723 177.117 151.723Z" fill="#EE9580"></path><path d="M152.244 160.197L159.713 176.277C161.514 179.212 167.315 179.179 169.883 176.877C172.883 174.208 176.018 169.538 176.218 161.465L176.518 154.793H153.478L152.211 160.197H152.244Z" fill="#D37960"></path><path d="M178.051 118.263L163.881 118.93L149.71 118.263L145.742 129.639L146.542 147.82C146.642 149.755 147.176 151.623 148.176 153.291L157.646 169.204C158.412 170.472 159.746 171.306 161.213 171.373L163.781 171.506H163.881H163.981L166.548 171.373C168.015 171.306 169.382 170.472 170.116 169.204L179.585 153.291C180.585 151.623 181.119 149.755 181.219 147.82L182.019 129.639L178.051 118.263Z" fill="#EFAA88"></path><path d="M183.453 134.943C183.82 134.776 184.22 134.676 184.653 134.71C186.387 134.81 185.954 144.951 181.186 147.62L179.719 139.413L181.453 136.745C181.453 136.745 182.286 135.51 183.453 134.943Z" fill="#EFAA88"></path><path d="M143.941 134.81C143.574 134.643 143.174 134.543 142.741 134.576C141.007 134.676 140.007 145.018 146.842 148.054L147.676 139.28L145.942 136.611C145.942 136.611 145.108 135.377 143.941 134.81Z" fill="#EFAA88"></path><path d="M182.753 135.477L182.052 136.244L181.586 140.448L180.952 142.983L181.019 128.271L176.384 120.365C173.383 123.367 165.914 123.734 165.914 123.734H161.747C161.747 123.734 154.278 123.367 151.277 120.365L146.642 128.271L146.742 142.983L146.109 140.448L145.642 136.244L144.942 135.477C144.942 135.477 141.408 121.098 149.276 112.792C149.276 112.792 149.343 112.725 149.376 112.692C152.044 109.923 155.978 107.821 161.747 107.187H165.914C189.054 109.756 182.719 135.477 182.719 135.477H182.753Z" fill="#740D00"></path><path d="M237.1 240.629C230.665 234.424 223.629 235.225 219.895 237.093C216.161 238.961 212.626 243.131 212.626 243.131L207.658 223.015L200.056 268.852L178.016 248.135L128.236 269.586L123.468 226.084L123.134 223.115L123.034 223.348L115.332 243.131C114.565 241.797 112.765 240.162 110.464 238.794C107.763 237.159 104.295 235.758 100.828 235.458C94.3593 234.858 90.6582 238.694 90.6582 238.694L97.9936 216.409L101.228 203.832L102.628 203.499L109.163 190.655L110.931 187.019L114.598 186.352C119.566 186.151 147.674 172.941 147.674 172.941L150.809 177.678L155.177 181.915L163.146 187.886L163.879 188.787L179.217 172.273L214.427 186.952L216.527 186.885L218.161 188.787C218.161 188.787 228.764 211.772 229.598 212.506C230.431 213.24 229.798 215.175 229.798 216.476C229.798 217.777 237.133 240.629 237.133 240.629H237.1Z" fill="#FFA633"></path><path d="M122.135 220.112L122.868 222.247L123.035 223.282L115.333 243.064C114.566 241.73 112.765 240.095 110.465 238.727L122.135 220.112Z" fill="#D78035"></path><path d="M208.325 220.212L207.658 222.981L213.06 244.465C213.96 243.231 215.927 241.83 218.395 240.696L208.325 220.212Z" fill="#D78035"></path><path d="M235.501 302.079C235.501 305.048 234.468 307.717 232.7 309.652L120.268 307.45L93.1939 306.149C92.9939 305.315 92.8605 304.414 92.8605 303.48L92.5938 250.771L97.6285 244.766L138.407 260.111L196.057 259.978L235.168 243.531L235.468 302.112L235.501 302.079Z" fill="#B2B1B1"></path><path d="M163.748 188.687C163.481 188.52 160.28 186.652 157.646 185.551C156.445 185.05 155.378 184.717 154.712 184.784C150.911 185.117 152.611 191.956 152.611 191.956C145.276 183.082 147.576 171.006 147.576 171.006L151.411 167.836C151.411 168.037 151.411 168.27 151.411 168.47L148.643 171.273L151.111 173.841L163.748 188.72V188.687Z" fill="#FFD064"></path><path d="M175.117 191.422C175.417 189.821 176.084 185.05 172.917 184.784C172.217 184.717 171.05 185.117 169.749 185.651C167.549 186.585 165.048 187.986 164.181 188.487C164.048 188.587 163.948 188.653 163.881 188.653L176.584 173.708L178.685 170.639L176.118 168.17V167.67L180.019 170.939C180.019 170.939 182.353 183.049 174.984 191.889C174.984 191.889 175.017 191.689 175.084 191.356L175.117 191.422Z" fill="#FFD064"></path><path d="M168.248 136.177L169.015 134.476C169.215 134.042 169.615 133.709 170.115 133.609L175.383 132.608C175.683 132.541 176.017 132.641 176.25 132.875L179.385 136.011L176.084 133.442C175.884 133.275 175.617 133.242 175.35 133.308L168.248 136.177Z" fill="#740D00"></path><path d="M160.146 136.177L159.379 134.476C159.179 134.042 158.779 133.709 158.279 133.609L153.011 132.608C152.711 132.541 152.377 132.641 152.144 132.875L149.01 136.011L152.311 133.442C152.511 133.275 152.778 133.242 153.044 133.308L160.146 136.177Z" fill="#740D00"></path><path d="M231.367 258.243L223.064 261.179L197.023 270.387L199.457 255.775L214.528 240.229L219.997 242.531L221.597 243.231L224.865 244.632L228.599 250.337L231.4 258.243H231.367Z" fill="#EFAA88"></path><path d="M220.43 243.198H221.563L224.831 244.632L228.565 250.337L231.366 258.243L220.43 262.113C221.13 261.713 230.499 256.942 220.43 243.198Z" fill="#EE9580"></path><path d="M212.395 242.13C212.395 242.13 218.23 230.487 236.201 237.893C236.201 237.893 241.269 246.167 240.336 250.17C239.402 254.173 234.367 260.645 229.666 258.81L231.367 258.21C231.367 258.21 222.931 237.693 212.395 242.13Z" fill="#FFD064"></path><path d="M128.436 256.642L128.203 269.552L106.797 262.513L97.4943 259.444L96.5273 259.111L99.3281 251.204L103.029 245.5L106.73 243.932L107.364 243.665L113.365 241.096L128.436 256.642Z" fill="#EFAA88"></path><path d="M107.363 243.665C99.0276 255.274 104.563 260.879 106.797 262.513L97.4939 259.444L96.627 259.144L99.4278 251.238L103.162 245.533L106.43 244.132L106.763 243.932L107.563 243.398C107.563 243.398 107.43 243.565 107.363 243.665Z" fill="#EE9580"></path><path d="M115.333 243.098C115.333 243.098 110.831 235.225 99.895 235.225C96.9608 235.225 93.9267 235.358 90.6591 238.594C90.6591 238.594 86.6246 247.034 87.5582 251.071C88.4918 255.107 93.3932 261.479 98.0945 259.644L96.4941 259.111C96.4941 259.111 104.763 238.661 115.299 243.098H115.333Z" fill="#FFD064"></path><path d="M230.133 255.474C230.133 255.474 231.233 258.277 229.666 258.844L231.667 258.944L232.734 256.442L230.866 255.007L230.166 255.508L230.133 255.474Z" fill="#FFD064"></path><path d="M97.9943 255.841C97.9943 255.841 96.4939 259.077 98.0943 259.611H96.2271L95.1602 257.109L97.0274 255.675L98.0276 255.808L97.9943 255.841Z" fill="#FFD064"></path><path d="M235.667 299.477V310.552C234.766 310.986 233.866 311.42 232.966 311.854C232.099 312.254 231.199 312.654 230.332 313.055C229.432 313.455 228.531 313.855 227.631 314.222C222.296 316.491 216.828 318.492 211.193 320.16C203.724 322.462 195.989 324.197 188.053 325.365C181.918 326.299 175.683 326.866 169.348 327.066H169.314C167.514 327.133 165.713 327.166 163.913 327.166C161.346 327.166 158.812 327.099 156.311 326.966C152.743 326.799 149.175 326.532 145.674 326.132C144.074 325.965 142.474 325.765 140.906 325.531C131.57 324.23 122.434 322.129 113.665 319.26C113.499 319.193 113.299 319.159 113.132 319.093C106.863 317.058 100.762 314.622 94.8599 311.82C94.1931 311.553 93.5262 311.22 92.8594 310.853V299.21C92.9594 298.042 93.8263 297.108 94.8599 296.775C95.1267 296.675 95.4268 296.641 95.6935 296.641H232.966C234.133 296.708 235.133 297.475 235.467 298.543V298.609C235.6 298.91 235.667 299.177 235.667 299.477Z" fill="#D3D3D3"></path><path d="M161.113 152.958L162.88 154.125C163.581 154.592 164.514 154.592 165.248 154.125L167.015 152.958C166.448 152.691 165.381 152.324 163.981 152.324C162.714 152.324 161.713 152.691 161.147 152.958H161.113Z" fill="#D37960"></path><path d="M160.146 136.177C160.146 136.177 163.847 140.881 162.346 147.987C162.346 147.987 162.546 141.348 159.412 135.877L160.179 136.177H160.146Z" fill="#EE9580"></path><path d="M171.515 157.495C171.515 157.495 170.514 158.596 169.314 160.063C167.714 161.998 165.88 163.7 164.046 163.766H163.812V160.43L163.879 159.096H163.979L168.814 159.163C169.181 159.163 169.581 159.029 169.848 158.796L171.415 157.595L171.481 157.528L171.515 157.495Z" fill="#EE9580"></path><path d="M164.013 163.766H163.779C161.945 163.733 160.112 162.032 158.511 160.063C157.744 159.163 156.911 158.429 156.344 157.995C156.344 157.995 156.311 157.962 156.277 157.928C156.211 157.862 156.144 157.828 156.077 157.795C155.944 157.695 155.877 157.662 155.844 157.628L158.011 158.896C158.278 159.029 158.578 159.129 158.878 159.129L163.846 159.063H163.946V160.43L164.013 163.733V163.766Z" fill="#EE9580"></path><path d="M171.415 157.561C168.647 160.397 164.446 160.264 164.446 160.264C164.446 160.264 164.279 160.264 163.979 160.197C163.946 160.197 163.913 160.197 163.846 160.197C162.612 159.963 159.778 159.463 159.111 159.396C158.511 159.296 157.144 158.462 156.377 157.995C156.377 157.995 156.344 157.995 156.31 157.962C156.244 157.928 156.177 157.862 156.11 157.828C155.977 157.762 155.91 157.695 155.877 157.662L158.044 158.829C158.311 158.963 158.611 159.029 158.911 159.029H163.879L163.979 158.996H168.814C169.181 159.029 169.581 158.929 169.848 158.729L171.415 157.628V157.561Z" fill="#D37960"></path><path d="M159.111 159.363C159.111 159.363 160.945 159.797 164.379 159.797C167.814 159.797 169.214 159.196 169.214 159.196C169.214 159.196 166.613 161.565 164.113 161.565C161.612 161.565 159.145 159.396 159.145 159.396L159.111 159.363Z" fill="white"></path><path d="M169.248 144.117L172.816 144.084H175.116L176.483 141.648L171.015 141.749L169.248 144.117Z" fill="white"></path><path d="M169.248 144.117L170.748 141.715C170.748 141.715 170.982 141.482 171.149 141.482L177.35 141.181L175.15 144.05L176.517 141.615L171.049 141.749L169.281 144.084L169.248 144.117Z" fill="black"></path><path d="M171.45 144.084C171.35 143.917 171.316 143.55 171.316 143.317C171.316 142.516 171.95 141.849 172.783 141.849C173.617 141.849 174.284 142.483 174.284 143.283C174.284 143.55 174.217 143.85 174.084 144.084H171.483H171.45Z" fill="black"></path><path d="M174.083 143.383C174.083 143.583 174.083 143.784 173.983 143.95V144.084H171.582C171.516 143.917 171.482 143.583 171.482 143.383C171.482 143.25 171.482 143.116 171.516 142.983C171.649 142.549 171.983 142.216 172.383 142.116C172.483 142.116 172.616 142.082 172.749 142.082C173.35 142.082 173.816 142.449 173.983 142.983C174.016 143.083 174.05 143.25 174.05 143.383H174.083Z" fill="#551D00"></path><path d="M173.95 144.084H171.582C171.582 144.084 171.482 143.583 171.482 143.383C171.482 143.25 171.482 143.116 171.516 142.983C171.516 142.983 171.983 142.716 172.249 143.15L173.283 143.583C173.283 143.583 173.916 143.483 173.95 144.05V144.084Z" fill="#843611"></path><path d="M172.782 143.917C173.095 143.917 173.349 143.663 173.349 143.35C173.349 143.037 173.095 142.783 172.782 142.783C172.469 142.783 172.215 143.037 172.215 143.35C172.215 143.663 172.469 143.917 172.782 143.917Z" fill="black"></path><path d="M173.216 143.05C173.363 143.05 173.483 142.93 173.483 142.783C173.483 142.635 173.363 142.516 173.216 142.516C173.069 142.516 172.949 142.635 172.949 142.783C172.949 142.93 173.069 143.05 173.216 143.05Z" fill="white"></path><path d="M159.679 144.117L156.111 144.084H153.81L152.443 141.648L157.912 141.749L159.679 144.117Z" fill="white"></path><path d="M159.678 144.117L158.178 141.715C158.178 141.715 157.945 141.482 157.778 141.482L151.576 141.181L153.777 144.05L152.41 141.615L157.878 141.749L159.645 144.084L159.678 144.117Z" fill="black"></path><path d="M157.479 144.084C157.579 143.917 157.612 143.55 157.612 143.317C157.612 142.516 156.979 141.849 156.145 141.849C155.311 141.849 154.645 142.483 154.645 143.283C154.645 143.55 154.711 143.85 154.845 144.084H157.445H157.479Z" fill="black"></path><path d="M154.811 143.383C154.811 143.583 154.811 143.784 154.911 143.95V144.084H157.311C157.378 143.917 157.411 143.583 157.411 143.383C157.411 143.25 157.411 143.116 157.378 142.983C157.245 142.549 156.911 142.216 156.511 142.116C156.411 142.116 156.278 142.082 156.144 142.082C155.544 142.082 155.077 142.449 154.911 142.983C154.877 143.083 154.844 143.25 154.844 143.383H154.811Z" fill="#551D00"></path><path d="M154.977 144.084H157.344C157.344 144.084 157.444 143.583 157.444 143.383C157.444 143.25 157.444 143.116 157.411 142.983C157.411 142.983 156.944 142.716 156.677 143.15L155.643 143.583C155.643 143.583 155.01 143.483 154.977 144.05V144.084Z" fill="#843611"></path><path d="M156.145 143.917C156.458 143.917 156.712 143.663 156.712 143.35C156.712 143.037 156.458 142.783 156.145 142.783C155.832 142.783 155.578 143.037 155.578 143.35C155.578 143.663 155.832 143.917 156.145 143.917Z" fill="black"></path><path d="M155.71 143.05C155.857 143.05 155.977 142.93 155.977 142.783C155.977 142.635 155.857 142.516 155.71 142.516C155.563 142.516 155.443 142.635 155.443 142.783C155.443 142.93 155.563 143.05 155.71 143.05Z" fill="white"></path><g opacity="0.08"><path d="M155.244 151.29C158.891 151.29 161.846 148.347 161.846 144.718C161.846 141.088 158.891 138.146 155.244 138.146C151.598 138.146 148.643 141.088 148.643 144.718C148.643 148.347 151.598 151.29 155.244 151.29Z" fill="white"></path></g><path d="M169.248 144.217H175.183C175.183 144.217 171.349 144.484 169.248 144.217Z" fill="#EE9580"></path><path d="M159.746 144.251H153.811C153.811 144.251 157.645 144.517 159.746 144.251Z" fill="#EE9580"></path><path d="M176.349 140.147C176.349 140.147 171.281 140.448 170.681 140.848C169.981 141.315 168.947 143.45 168.947 143.45L170.581 141.215C170.581 141.215 170.848 140.981 171.015 140.981L175.983 140.481L176.349 140.147Z" fill="#EE9580"></path><path d="M152.576 140.147C152.576 140.147 157.644 140.448 158.244 140.848C158.945 141.315 159.978 143.45 159.978 143.45L158.344 141.215C158.344 141.215 158.078 140.981 157.911 140.981L152.943 140.481L152.576 140.147Z" fill="#EE9580"></path><g opacity="0.08"><path d="M172.983 151.29C176.629 151.29 179.585 148.347 179.585 144.718C179.585 141.088 176.629 138.146 172.983 138.146C169.337 138.146 166.381 141.088 166.381 144.718C166.381 148.347 169.337 151.29 172.983 151.29Z" fill="white"></path></g><path d="M161.847 143.917L161.58 143.517C161.58 143.517 164.181 141.749 166.548 143.517L166.248 143.917C164.181 142.349 161.947 143.85 161.847 143.917Z" fill="black"></path><path d="M179.417 142.483C179.35 142.282 179.284 142.082 179.184 141.882C178.117 139.547 175.716 137.912 172.982 137.912C169.648 137.912 166.88 140.247 166.247 143.35C166.247 143.517 166.18 143.717 166.18 143.884C166.147 144.151 166.113 144.451 166.113 144.718C166.113 148.487 169.181 151.557 172.982 151.557C176.783 151.557 179.817 148.487 179.817 144.718C179.817 143.917 179.684 143.183 179.417 142.483ZM172.982 151.056C169.481 151.056 166.613 148.221 166.613 144.718C166.613 141.215 169.481 138.379 172.982 138.379C176.483 138.379 179.317 141.248 179.317 144.718C179.317 148.187 176.483 151.056 172.982 151.056Z" fill="black"></path><path d="M161.946 143.85C161.946 143.683 161.912 143.517 161.879 143.35C161.245 140.247 158.478 137.912 155.177 137.912C152.41 137.912 150.009 139.58 148.942 141.949C148.842 142.149 148.775 142.349 148.709 142.549C148.475 143.25 148.342 143.95 148.342 144.718C148.342 148.487 151.409 151.557 155.177 151.557C158.945 151.557 162.012 148.487 162.012 144.718C162.012 144.417 161.979 144.151 161.946 143.85ZM148.842 144.718C148.842 141.248 151.676 138.379 155.177 138.379C158.678 138.379 161.512 141.248 161.512 144.718C161.512 148.187 158.678 151.056 155.177 151.056C151.676 151.056 148.842 148.221 148.842 144.718Z" fill="black"></path><path d="M181.834 136.155L178.896 142.441L179.35 142.653L182.287 136.367L181.834 136.155Z" fill="black"></path><path d="M148.742 142.649L145.508 136.044L145.941 135.844L149.176 142.449L148.742 142.649Z" fill="black"></path><path d="M151.342 120.365L150.676 121.532L149.342 112.792C149.342 112.792 149.408 112.725 149.442 112.692L151.342 120.365Z" fill="#8C1D17"></path><g opacity="0.42"><path d="M173.016 150.589C175.649 150.589 177.784 148.886 177.784 146.786C177.784 144.686 175.649 142.983 173.016 142.983C170.383 142.983 168.248 144.686 168.248 146.786C168.248 148.886 170.383 150.589 173.016 150.589Z" fill="white"></path></g><g opacity="0.42"><path d="M155.178 150.589C157.811 150.589 159.946 148.886 159.946 146.786C159.946 144.686 157.811 142.983 155.178 142.983C152.545 142.983 150.41 144.686 150.41 146.786C150.41 148.886 152.545 150.589 155.178 150.589Z" fill="white"></path></g><path d="M221.096 296.641C220.295 301.512 218.795 305.215 218.795 305.215L216.694 309.352L214.861 312.921L211.193 320.16C203.724 322.462 195.989 324.197 188.053 325.365C181.918 326.299 175.683 326.866 169.348 327.066L173.882 313.588L175.583 308.551L179.484 296.941L179.617 296.641L182.785 289.035L185.252 283.197L188.286 280.461C189.987 278.893 191.887 277.559 193.921 276.491C195.555 275.591 197.289 274.857 199.089 274.29C199.356 274.19 199.623 274.123 199.923 274.023L204.024 272.889L206.125 272.288C206.125 272.288 207.125 272.421 208.659 272.922C209.859 273.322 211.36 273.889 212.893 274.79C213.627 275.224 214.327 275.691 215.061 276.225C217.161 277.826 219.129 280.094 220.329 283.197C221.963 287.5 221.763 292.471 221.096 296.641Z" fill="#282516"></path><path d="M145.676 326.132C144.075 325.965 142.475 325.765 140.908 325.531C131.572 324.23 122.436 322.129 113.667 319.26L112.533 313.955L111.066 307.016L109.132 297.809C109.065 297.408 109.032 297.042 108.999 296.641C108.332 289.269 110.466 281.862 115.067 276.024L115.167 275.924C116.634 274.023 118.735 272.688 121.069 272.088L125.07 271.054H125.103L126.203 270.787L130.271 269.753H130.305L131.005 270.253L134.706 272.788L135.373 273.256L138.44 275.357L142.175 277.959L144.509 294.406L144.842 296.641L144.909 297.108L145.176 307.95L145.342 313.788L145.676 326.132Z" fill="#282516"></path><path d="M144.907 297.108L166.547 296.441L189.086 297.308L206.124 272.288L130.27 269.719L144.907 297.108Z" fill="#282516"></path><path d="M125.203 271.587L117.834 235.391C117.568 234.124 118.568 232.889 119.868 232.889H207.26C208.56 232.889 209.527 234.057 209.294 235.325L202.625 271.454C202.458 272.421 201.592 273.155 200.591 273.155H127.204C126.203 273.189 125.37 272.522 125.17 271.554L125.203 271.587Z" fill="#8F8C8B"></path><path d="M122.901 223.148L110.664 187.085L111.131 186.919L123.334 222.981L122.901 223.148Z" fill="#E18029"></path><path d="M207.893 223.081L207.393 222.948L216.228 186.819L216.695 186.952L207.893 223.081Z" fill="#E18029"></path><path d="M175.249 191.356L175.049 191.889C175.349 190.288 176.116 185.05 172.949 184.75C172.249 184.683 171.082 185.084 169.781 185.618C167.581 186.552 165.08 187.953 164.213 188.453C165.713 187.519 172.048 183.616 174.649 183.95C177.617 184.35 175.249 191.322 175.249 191.322V191.356Z" fill="#D78035"></path><path d="M152.609 191.956C152.309 190.355 151.909 185.351 155.077 185.084C155.777 185.017 156.944 185.417 158.244 185.951C160.445 186.885 162.946 188.286 163.812 188.787C162.312 187.853 155.977 183.95 153.376 184.283C150.409 184.683 152.609 191.956 152.609 191.956Z" fill="#D78035"></path><path d="M164.147 188.787H163.646V232.656H164.147V188.787Z" fill="#E18029"></path><path d="M169.582 201.03C169.582 201.03 169.449 200.763 169.349 200.663C169.016 200.263 168.515 199.996 167.982 199.996C167.548 199.996 167.148 200.163 166.848 200.43C166.682 200.563 166.515 200.763 166.415 200.963C166.415 200.963 166.404 200.986 166.381 201.03L166.248 201.597V201.697C166.248 201.931 166.281 202.098 166.381 202.298C166.648 202.998 167.282 203.432 167.982 203.432C168.249 203.432 168.482 203.365 168.715 203.265C168.849 203.199 168.949 203.132 169.082 203.032C169.449 202.731 169.716 202.231 169.716 201.697C169.716 201.464 169.682 201.23 169.582 201.03ZM168.915 202.498H168.882C168.649 202.765 168.349 202.932 167.982 202.932C167.315 202.932 166.748 202.398 166.748 201.697C166.748 200.997 167.315 200.463 167.982 200.463C168.549 200.463 169.049 200.863 169.149 201.43C169.149 201.43 169.216 201.597 169.216 201.697C169.216 201.998 169.116 202.298 168.915 202.498Z" fill="#E18029"></path><path d="M167.982 222.014C167.048 222.014 166.248 222.814 166.248 223.749C166.248 224.683 167.048 225.483 167.982 225.483C168.915 225.483 169.716 224.683 169.716 223.749C169.716 222.814 168.915 222.014 167.982 222.014ZM167.982 224.983C167.315 224.983 166.748 224.416 166.748 223.749C166.748 223.081 167.315 222.514 167.982 222.514C168.649 222.514 169.216 223.081 169.216 223.749C169.216 224.416 168.649 224.983 167.982 224.983Z" fill="#E18029"></path><path d="M172.516 254.007C170.449 251.571 166.948 250.07 163.114 250.037H162.98C159.113 250.037 155.578 251.504 153.511 253.973L152.744 253.339C154.978 250.637 158.813 249.036 162.98 249.036C163.014 249.036 163.08 249.036 163.114 249.036C167.215 249.069 171.016 250.67 173.25 253.339L172.516 253.973V254.007Z" fill="white"></path><path d="M169.514 256.008C168.014 254.44 165.68 253.506 163.079 253.473H162.979C160.379 253.473 157.978 254.407 156.511 255.975L155.811 255.308C157.511 253.473 160.212 252.472 163.113 252.472C165.98 252.472 168.581 253.539 170.248 255.308L169.548 255.975L169.514 256.008Z" fill="white"></path><path d="M159.513 258.01L158.846 257.309C159.879 256.308 161.446 255.741 163.08 255.741C164.714 255.741 166.214 256.308 167.215 257.276L166.548 257.976C165.714 257.176 164.447 256.709 163.08 256.709H163.014C161.613 256.709 160.346 257.176 159.513 257.976V258.01Z" fill="white"></path><path d="M164.247 259.344C164.247 259.778 163.68 260.111 163.013 260.111C162.346 260.111 161.812 259.745 161.812 259.311C161.812 258.877 162.346 258.51 163.046 258.51C163.746 258.51 164.28 258.877 164.247 259.344Z" fill="white"></path><path d="M141.774 275.557L144.541 285.866L144.908 297.142L179.484 296.941C179.484 296.941 166.547 296.441 183.719 273.289H143.774L141.74 275.591L141.774 275.557Z" fill="#11100B"></path><path d="M184.781 283.036L179.016 296.751L179.907 297.126L185.672 283.411L184.781 283.036Z" fill="#3F350C"></path><path d="M145.374 297.142L144.407 297.075C145.241 283.164 141.373 275.824 141.34 275.758L142.207 275.29C142.373 275.591 146.241 282.963 145.408 297.142H145.374Z" fill="#3F350C"></path><path d="M163.913 328C161.313 328 158.745 327.933 156.278 327.8C152.51 327.633 148.909 327.333 145.575 326.966C143.974 326.799 142.374 326.599 140.773 326.365C131.404 325.064 122.201 322.929 113.399 320.06L113.166 319.993C113.166 319.993 112.932 319.927 112.832 319.893C106.63 317.892 100.462 315.423 94.4936 312.587C93.9268 312.354 93.2266 312.02 92.4597 311.587C91.3927 311.12 90.259 310.552 89.1587 309.952C88.3585 309.552 87.7583 309.251 87.1248 308.918C76.4218 303.247 66.4189 296.408 57.3497 288.568C55.6825 287.167 53.982 285.666 51.9815 283.764C18.9387 252.906 0 209.237 0 164C0 144.517 3.40097 125.402 10.1362 107.187C11.8034 102.65 13.6039 98.3466 15.5044 94.3767C19.839 85.1025 25.0738 76.2286 31.0755 67.9552C32.8427 65.5199 34.5098 63.3181 36.177 61.2832C67.4526 22.3515 113.999 0 163.913 0C201.024 0 236.034 12.1098 265.142 35.0285L264.109 36.3295C235.3 13.6444 200.657 1.66802 163.913 1.66802C114.533 1.66802 68.4195 23.786 37.4773 62.3507C35.8102 64.3857 34.1764 66.5207 32.4426 68.9561C26.5076 77.1294 21.3061 85.9365 17.0048 95.1107C15.1376 99.0472 13.3371 103.317 11.7033 107.788C5.06811 125.802 1.70048 144.718 1.70048 164C1.70048 208.803 20.4392 252.005 53.1485 282.563C55.1157 284.431 56.8162 285.932 58.45 287.3C67.4192 295.073 77.3554 301.845 87.9584 307.45C88.5586 307.784 89.1587 308.084 89.7589 308.384C91.0259 309.051 92.1262 309.585 93.2266 310.085C93.9268 310.486 94.5603 310.786 95.1938 311.053C101.129 313.855 107.231 316.29 113.399 318.292L113.599 318.359C113.599 318.359 113.866 318.426 113.966 318.492C122.602 321.328 131.738 323.43 141.007 324.697C142.574 324.931 144.141 325.131 145.742 325.298C149.042 325.665 152.61 325.965 156.345 326.132C160.479 326.365 164.914 326.399 169.282 326.232C175.583 326.032 181.852 325.465 187.92 324.531C195.822 323.363 203.591 321.628 210.927 319.36C216.295 317.758 221.797 315.79 227.298 313.455C228.198 313.088 229.099 312.688 229.999 312.287L235.3 309.785C242.736 306.116 249.871 301.912 256.473 297.308C259.04 295.54 261.608 293.639 264.109 291.67C265.909 290.236 267.676 288.768 269.41 287.3C275.879 281.762 281.98 275.657 287.549 269.085C287.949 268.618 288.349 268.151 288.716 267.684C308.588 243.731 321.058 214.975 324.893 184.317L326.56 184.517C322.692 215.475 310.088 244.532 290.116 268.585C289.616 269.219 289.216 269.686 288.816 270.153C283.214 276.792 277.046 282.963 270.477 288.568C268.743 290.069 266.943 291.537 265.109 293.005C262.575 295.007 259.974 296.908 257.407 298.71C250.738 303.347 243.569 307.617 236.034 311.32L230.666 313.822C229.765 314.222 228.832 314.622 227.932 314.989C222.397 317.358 216.828 319.36 211.427 320.961C203.991 323.263 196.156 324.998 188.187 326.199C182.052 327.133 175.717 327.7 169.382 327.9C167.548 327.967 165.714 328 163.913 328Z" fill="#FFA633"></path><path d="M331.127 67.4548H241.435C238.157 67.4548 235.5 70.1134 235.5 73.393V164.767C235.5 168.047 238.157 170.705 241.435 170.705H331.127C334.405 170.705 337.062 168.047 337.062 164.767V73.393C337.062 70.1134 334.405 67.4548 331.127 67.4548Z" fill="#BAE2FF"></path><path d="M279.446 87.1375H244.969C243.883 87.1375 243.002 88.0187 243.002 89.1058V123.6C243.002 124.688 243.883 125.569 244.969 125.569H279.446C280.532 125.569 281.413 124.688 281.413 123.6V89.1058C281.413 88.0187 280.532 87.1375 279.446 87.1375Z" fill="white"></path><path d="M264.509 119.164L253.739 119.23V112.158C253.706 110.89 253.239 109.656 252.405 108.722C250.871 106.987 250.038 104.752 250.071 102.417C250.138 97.3792 254.172 93.4093 259.174 93.3426C263.175 93.3092 266.709 95.8112 268.01 99.6143C268.11 99.8812 268.176 100.148 268.243 100.415L270.51 108.221H268.176C267.976 108.221 267.776 108.055 267.776 107.854C267.776 107.654 267.943 107.454 268.143 107.454H269.477L267.51 100.615C267.443 100.348 267.376 100.115 267.31 99.8812C266.143 96.4117 262.875 94.1098 259.207 94.1432C254.606 94.1766 250.905 97.8462 250.838 102.45C250.805 104.585 251.572 106.62 252.972 108.221C253.939 109.289 254.473 110.69 254.473 112.158V118.463L263.742 118.396V115.627C263.742 114.927 264.275 114.326 264.976 114.26L267.776 114.093C267.976 114.093 268.176 114.226 268.176 114.46C268.176 114.66 268.043 114.86 267.81 114.86L265.009 115.027C264.709 115.027 264.475 115.294 264.475 115.627V119.13L264.509 119.164Z" fill="#1F7AFF"></path><path d="M257.774 102.65C257.774 102.65 257.641 102.717 257.574 102.717C257.374 102.717 257.174 102.55 257.174 102.35L257.107 93.2091C257.107 93.009 257.274 92.8088 257.474 92.8088C257.674 92.8088 257.874 92.9756 257.874 93.1758L257.941 102.317C257.941 102.317 257.874 102.583 257.774 102.65Z" fill="black"></path><path d="M269.877 111.491C269.877 111.491 269.744 111.557 269.677 111.557H261.508C260.374 111.624 259.307 111.19 258.507 110.39C257.707 109.589 257.24 108.522 257.24 107.387V105.452C257.24 105.252 257.407 105.052 257.607 105.052C257.807 105.052 258.007 105.219 258.007 105.419V107.354C258.007 108.288 258.374 109.155 259.041 109.789C259.708 110.423 260.575 110.79 261.508 110.79H269.677C269.877 110.757 270.077 110.924 270.077 111.124C270.077 111.257 270.011 111.391 269.91 111.457L269.877 111.491Z" fill="black"></path><mask id="mask0_1_213" style="mask-type:luminance" maskUnits="userSpaceOnUse" x="256" y="99" width="4" height="10"><path d="M259.137 101.443C259.132 100.596 258.441 99.9129 257.594 99.9179C256.747 99.9229 256.065 100.614 256.07 101.462L256.102 106.999C256.108 107.847 256.798 108.53 257.645 108.525C258.492 108.52 259.175 107.829 259.17 106.981L259.137 101.443Z" fill="white"></path></mask><g mask="url(#mask0_1_213)"><path d="M256.406 108.555L259.174 106.854V108.555H256.406Z" fill="#EAAC0F"></path><path d="M256.205 108.555L259.173 106.72V106.854L256.405 108.555H256.205Z" fill="#EAAC0F"></path><path d="M256.039 108.522L259.173 106.587V106.72L256.206 108.555H256.039V108.522Z" fill="#EAAB10"></path><path d="M256.039 108.388L259.173 106.453V106.587L256.039 108.522V108.388Z" fill="#EAAA10"></path><path d="M256.039 108.255L259.173 106.32V106.453L256.039 108.388V108.255Z" fill="#EBA911"></path><path d="M256.039 108.155L259.173 106.186V106.32L256.039 108.255V108.155Z" fill="#EBA812"></path><path d="M256.039 108.021L259.173 106.053V106.186L256.039 108.155V108.021Z" fill="#EBA713"></path><path d="M256.039 107.888L259.173 105.953V106.053L256.039 108.021V107.888Z" fill="#EBA613"></path><path d="M256.039 107.754L259.173 105.819V105.953L256.039 107.888V107.754Z" fill="#EBA514"></path><path d="M256.039 107.621L259.173 105.686V105.819L256.039 107.754V107.621Z" fill="#ECA415"></path><path d="M256.039 107.487L259.173 105.552V105.686L256.039 107.621V107.487Z" fill="#ECA316"></path><path d="M256.039 107.354L259.173 105.419V105.552L256.039 107.487V107.354Z" fill="#ECA216"></path><path d="M256.039 107.221L259.173 105.286V105.419L256.039 107.354V107.221Z" fill="#ECA117"></path><path d="M256.039 107.087L259.173 105.152V105.286L256.039 107.221V107.087Z" fill="#EDA018"></path><path d="M256.039 106.954L259.173 105.019V105.152L256.039 107.087V106.954Z" fill="#ED9F18"></path><path d="M256.039 106.854L259.173 104.885V105.019L256.039 106.954V106.854Z" fill="#ED9E19"></path><path d="M256.039 106.72L259.173 104.752V104.885L256.039 106.854V106.72Z" fill="#ED9D1A"></path><path d="M256.039 106.587L259.173 104.652V104.752L256.039 106.72V106.587Z" fill="#ED9C1B"></path><path d="M256.039 106.453L259.173 104.518V104.652L256.039 106.587V106.453Z" fill="#EE9B1B"></path><path d="M256.039 106.32L259.173 104.385V104.518L256.039 106.453V106.32Z" fill="#EE9A1C"></path><path d="M256.039 106.186L259.173 104.251V104.385L256.039 106.32V106.186Z" fill="#EE991D"></path><path d="M256.039 106.053L259.173 104.118V104.251L256.039 106.186V106.053Z" fill="#EE981D"></path><path d="M256.039 105.919L259.173 103.985V104.118L256.039 106.053V105.919Z" fill="#EE971E"></path><path d="M256.039 105.786L259.173 103.851V103.985L256.039 105.919V105.786Z" fill="#EF961F"></path><path d="M256.039 105.653L259.173 103.718V103.851L256.039 105.786V105.653Z" fill="#EF9420"></path><path d="M256.039 105.552L259.173 103.584V103.718L256.039 105.653V105.552Z" fill="#EF9320"></path><path d="M256.039 105.419L259.173 103.484V103.584L256.039 105.552V105.419Z" fill="#EF9221"></path><path d="M256.039 105.286L259.173 103.351V103.484L256.039 105.419V105.286Z" fill="#EF9122"></path><path d="M256.039 105.152L259.173 103.217V103.351L256.039 105.286V105.152Z" fill="#F09022"></path><path d="M256.039 105.019L259.173 103.084V103.217L256.039 105.152V105.019Z" fill="#F08F23"></path><path d="M256.039 104.885L259.173 102.95V103.084L256.039 105.019V104.885Z" fill="#F08E24"></path><path d="M256.039 104.752L259.173 102.817V102.95L256.039 104.885V104.752Z" fill="#F08D25"></path><path d="M256.039 104.618L259.173 102.683V102.817L256.039 104.752V104.618Z" fill="#F18C25"></path><path d="M256.039 104.485L259.173 102.55V102.683L256.039 104.618V104.485Z" fill="#F18B26"></path><path d="M256.039 104.385L259.173 102.417V102.55L256.039 104.485V104.385Z" fill="#F18A27"></path><path d="M256.039 104.251L259.173 102.283V102.417L256.039 104.385V104.251Z" fill="#F18928"></path><path d="M256.039 104.118L259.173 102.183V102.283L256.039 104.251V104.118Z" fill="#F18828"></path><path d="M256.039 103.985L259.173 102.05V102.183L256.039 104.118V103.985Z" fill="#F28729"></path><path d="M256.039 103.851L259.173 101.916V102.05L256.039 103.985V103.851Z" fill="#F2862A"></path><path d="M256.039 103.718L259.173 101.783V101.916L256.039 103.851V103.718Z" fill="#F2852A"></path><path d="M256.039 103.584L259.173 101.649V101.783L256.039 103.718V103.584Z" fill="#F2842B"></path><path d="M256.039 103.451L259.173 101.516V101.649L256.039 103.584V103.451Z" fill="#F2832C"></path><path d="M256.039 103.317L259.173 101.382V101.516L256.039 103.451V103.317Z" fill="#F3822D"></path><path d="M256.039 103.184L259.173 101.249V101.382L256.039 103.317V103.184Z" fill="#F3812D"></path><path d="M256.039 103.084L259.173 101.116V101.249L256.039 103.184V103.084Z" fill="#F3802E"></path><path d="M256.039 102.95L259.173 101.015V101.116L256.039 103.084V102.95Z" fill="#F37F2F"></path><path d="M256.039 102.817L259.173 100.882V101.015L256.039 102.95V102.817Z" fill="#F37E2F"></path><path d="M256.039 102.683L259.173 100.749V100.882L256.039 102.817V102.683Z" fill="#F47D30"></path><path d="M256.039 102.55L259.173 100.615V100.749L256.039 102.683V102.55Z" fill="#F47C31"></path><path d="M256.039 102.417L259.173 100.482V100.615L256.039 102.55V102.417Z" fill="#F47B32"></path><path d="M256.039 102.283L259.173 100.348V100.482L256.039 102.417V102.283Z" fill="#F47A32"></path><path d="M256.039 102.15L259.173 100.215V100.348L256.039 102.283V102.15Z" fill="#F47933"></path><path d="M256.039 102.016L259.173 100.081V100.215L256.039 102.15V102.016Z" fill="#F57834"></path><path d="M256.039 101.916L259.173 99.9479V100.081L256.039 102.016V101.916Z" fill="#F57734"></path><path d="M256.039 101.783L259.007 99.9146H259.173V99.9479L256.039 101.916V101.783Z" fill="#F57635"></path><path d="M256.039 101.649L258.807 99.9146H259.007L256.039 101.783V101.649Z" fill="#F57536"></path><path d="M256.039 101.516L258.573 99.9146H258.807L256.039 101.649V101.516Z" fill="#F67437"></path><path d="M256.039 101.382L258.373 99.9146H258.573L256.039 101.516V101.382Z" fill="#F67337"></path><path d="M256.039 101.249L258.173 99.9146H258.373L256.039 101.382V101.249Z" fill="#F67238"></path><path d="M256.039 101.116L257.94 99.9146H258.173L256.039 101.249V101.116Z" fill="#F67139"></path><path d="M256.039 100.982L257.74 99.9146H257.94L256.039 101.116V100.982Z" fill="#F67039"></path><path d="M256.039 100.849L257.539 99.9146H257.74L256.039 100.982V100.849Z" fill="#F76F3A"></path><path d="M256.039 100.715L257.339 99.9146H257.539L256.039 100.849V100.715Z" fill="#F76E3B"></path><path d="M256.039 100.615L257.106 99.9146H257.339L256.039 100.715V100.615Z" fill="#F76D3C"></path><path d="M256.039 100.482L256.906 99.9146H257.106L256.039 100.615V100.482Z" fill="#F76C3C"></path><path d="M256.039 100.348L256.706 99.9146H256.906L256.039 100.482V100.348Z" fill="#F76B3D"></path><path d="M256.039 100.215L256.506 99.9146H256.706L256.039 100.348V100.215Z" fill="#F86A3E"></path><path d="M256.039 100.081L256.272 99.9146H256.506L256.039 100.215V100.081Z" fill="#F8693E"></path><path d="M256.039 99.9479L256.072 99.9146H256.272L256.039 100.081V99.9479Z" fill="#F8683F"></path><path d="M256.073 99.9146L256.039 99.9486V99.9146H256.073Z" fill="#F86740"></path></g><path d="M275.579 90.9406C274.679 90.9406 273.945 91.6745 273.945 92.5753C273.945 93.476 274.679 94.1766 275.579 94.1766C276.479 94.1766 277.18 93.4426 277.18 92.5753C277.18 91.7079 276.446 90.9406 275.579 90.9406ZM275.579 93.6762C274.946 93.6762 274.445 93.1758 274.445 92.5753C274.445 91.9414 274.946 91.441 275.579 91.441C276.179 91.441 276.679 91.9414 276.679 92.5753C276.679 93.1758 276.179 93.6762 275.579 93.6762Z" fill="#1F7AFF"></path><path d="M275.579 97.179C274.679 97.179 273.945 97.8796 273.945 98.7803C273.945 99.681 274.679 100.382 275.579 100.382C276.479 100.382 277.18 99.681 277.18 98.7803C277.18 97.8796 276.446 97.179 275.579 97.179ZM275.579 99.9146C274.946 99.9146 274.445 99.4142 274.445 98.7803C274.445 98.1465 274.946 97.6461 275.579 97.6461C276.179 97.6461 276.679 98.1465 276.679 98.7803C276.679 99.4142 276.179 99.9146 275.579 99.9146Z" fill="#1F7AFF"></path><path d="M245.036 72.3255H325.792C327.96 72.3255 329.76 74.0936 329.76 76.2954C329.76 78.4638 327.993 80.2653 325.792 80.2653H245.036C242.869 80.2653 241.135 78.4972 241.135 76.3621V76.2954C241.135 74.1269 242.902 72.3922 245.036 72.3922V72.3255Z" fill="#17468C"></path><path d="M245.636 78.0968C246.612 78.0968 247.403 77.3052 247.403 76.3287C247.403 75.3522 246.612 74.5606 245.636 74.5606C244.66 74.5606 243.869 75.3522 243.869 76.3287C243.869 77.3052 244.66 78.0968 245.636 78.0968Z" fill="#FFA633"></path><path d="M251.072 78.0968C252.048 78.0968 252.839 77.3052 252.839 76.3287C252.839 75.3522 252.048 74.5606 251.072 74.5606C250.096 74.5606 249.305 75.3522 249.305 76.3287C249.305 77.3052 250.096 78.0968 251.072 78.0968Z" fill="#1F7AFF"></path><path d="M256.472 78.0968C257.448 78.0968 258.239 77.3052 258.239 76.3287C258.239 75.3522 257.448 74.5606 256.472 74.5606C255.496 74.5606 254.705 75.3522 254.705 76.3287C254.705 77.3052 255.496 78.0968 256.472 78.0968Z" fill="white"></path><path d="M327.494 87.1375H290.65C289.416 87.1375 288.416 88.1382 288.416 89.3727V158.963C288.416 160.197 289.416 161.198 290.65 161.198H327.494C328.728 161.198 329.728 160.197 329.728 158.963V89.3727C329.728 88.1382 328.728 87.1375 327.494 87.1375Z" fill="white"></path><path d="M276.278 135.277H243.902C243.405 135.277 243.002 135.68 243.002 136.177C243.002 136.675 243.405 137.078 243.902 137.078H276.278C276.775 137.078 277.178 136.675 277.178 136.177C277.178 135.68 276.775 135.277 276.278 135.277Z" fill="white"></path><path d="M267.342 144.05H243.902C243.405 144.05 243.002 144.454 243.002 144.951C243.002 145.449 243.405 145.852 243.902 145.852H267.342C267.839 145.852 268.242 145.449 268.242 144.951C268.242 144.454 267.839 144.05 267.342 144.05Z" fill="white"></path><path d="M261.807 152.824H243.902C243.405 152.824 243.002 153.228 243.002 153.725C243.002 154.222 243.405 154.626 243.902 154.626H261.807C262.305 154.626 262.708 154.222 262.708 153.725C262.708 153.228 262.305 152.824 261.807 152.824Z" fill="white"></path><path d="M295.885 144.417V154.426H302.82V144.417H295.885ZM302.153 153.725H296.552V145.085H302.153V153.725Z" fill="#1F7AFF"></path><path d="M305.887 140.681V154.426H312.822V140.681H305.887ZM312.155 153.725H306.554V141.348H312.155V153.725Z" fill="#1F7AFF"></path><path d="M315.59 135.61V154.426H322.525V135.61H315.59ZM321.858 153.725H316.29V136.277H321.858V153.725Z" fill="#1F7AFF"></path><path d="M297.017 140.981L296.584 140.448L304.219 134.409L309.521 137.345L318.157 130.373L318.59 130.906L309.621 138.179L304.286 135.243L297.017 140.981Z" fill="#ED9B1B"></path><path d="M325.693 91.7413H293.25V116.395H325.693V91.7413Z" fill="#BAE2FF"></path><path d="M326.992 124.168H291.982V124.568H326.992V124.168Z" fill="#BAE2FF"></path><path d="M111.532 59.5151H18.5392C16.2006 59.5151 14.3047 61.4119 14.3047 63.7518V137.011C14.3047 139.351 16.2006 141.248 18.5392 141.248H111.532C113.871 141.248 115.767 139.351 115.767 137.011V63.7518C115.767 61.4119 113.871 59.5151 111.532 59.5151Z" fill="#BAE2FF"></path><path d="M74.9889 64.419H21.4403C20.2986 64.419 19.373 65.3451 19.373 66.4874V90.7738C19.373 91.9161 20.2986 92.8421 21.4403 92.8421H74.9889C76.1306 92.8421 77.0562 91.9161 77.0562 90.7738V66.4874C77.0562 65.3451 76.1306 64.419 74.9889 64.419Z" fill="white"></path><path d="M108.699 64.6192H83.8581C82.7348 64.6192 81.8242 65.5303 81.8242 66.6542V90.5736C81.8242 91.6975 82.7348 92.6086 83.8581 92.6086H108.699C109.822 92.6086 110.732 91.6975 110.732 90.5736V66.6542C110.732 65.5303 109.822 64.6192 108.699 64.6192Z" fill="white"></path><path d="M31.8083 78.0635C29.541 78.0635 27.6738 76.1953 27.6738 73.9268C27.6738 71.6583 29.541 69.7901 31.8083 69.7901C34.0757 69.7901 35.9428 71.6583 35.9428 73.9268C35.9428 76.1953 34.0757 78.0635 31.8083 78.0635ZM31.8083 70.4573C29.8745 70.4573 28.3407 72.0252 28.3407 73.9268C28.3407 75.8283 29.9078 77.3963 31.8083 77.3963C33.7089 77.3963 35.276 75.8283 35.276 73.9268C35.276 72.0252 33.7089 70.4573 31.8083 70.4573Z" fill="#1F7AFF"></path><path d="M38.7435 85.2693H24.9062V84.9691C24.9062 84.7689 24.9062 84.6021 24.9062 84.4019C24.9062 80.5655 28.0405 77.4296 31.8749 77.4296C35.7093 77.4296 38.8436 80.5655 38.8436 84.4019C38.8436 84.5687 38.8436 84.8356 38.8436 84.9691V85.2693H38.7435ZM25.5064 84.6021H38.11C38.11 84.6021 38.11 84.4353 38.11 84.4019C38.11 80.9325 35.2759 78.0968 31.8082 78.0968C28.3406 78.0968 25.5064 80.9325 25.5064 84.4019C25.5064 84.4687 25.5064 84.5354 25.5064 84.6021Z" fill="#1F7AFF"></path><mask id="mask1_1_213" style="mask-type:luminance" maskUnits="userSpaceOnUse" x="29" y="82" width="6" height="6"><path d="M34.1329 84.1197L32.5061 82.492C32.1155 82.1012 31.4822 82.1012 31.0915 82.492L29.4647 84.1197C29.0741 84.5105 29.0741 85.1442 29.4647 85.5351L31.0915 87.1627C31.4822 87.5536 32.1155 87.5536 32.5061 87.1627L34.1329 85.5351C34.5236 85.1442 34.5236 84.5105 34.1329 84.1197Z" fill="white"></path></mask><g mask="url(#mask1_1_213)"><path d="M30.5746 82.1334H29.0742V87.5712H30.5746V82.1334Z" fill="#EAAC0F"></path><path d="M30.6408 82.1334H30.6074V87.5712H30.6408V82.1334Z" fill="#EAAC0F"></path><path d="M30.674 82.1334H30.6406V87.5712H30.674V82.1334Z" fill="#EAAB10"></path><path d="M30.7072 82.1334H30.6738V87.5712H30.7072V82.1334Z" fill="#EAAA10"></path><path d="M30.7423 82.1334H30.709V87.5712H30.7423V82.1334Z" fill="#EBA911"></path><path d="M30.7755 82.1334H30.7422V87.5712H30.7755V82.1334Z" fill="#EBA812"></path><path d="M30.8087 82.1334H30.7754V87.5712H30.8087V82.1334Z" fill="#EBA713"></path><path d="M30.8419 82.1334H30.8086V87.5712H30.8419V82.1334Z" fill="#EBA613"></path><path d="M30.8751 82.1334H30.8418V87.5712H30.8751V82.1334Z" fill="#EBA514"></path><path d="M30.9083 82.1334H30.875V87.5712H30.9083V82.1334Z" fill="#ECA415"></path><path d="M30.9415 82.1334H30.9082V87.5712H30.9415V82.1334Z" fill="#ECA316"></path><path d="M30.9747 82.1334H30.9414V87.5712H30.9747V82.1334Z" fill="#ECA216"></path><path d="M31.008 82.1334H30.9746V87.5712H31.008V82.1334Z" fill="#ECA117"></path><path d="M31.0412 82.1334H31.0078V87.5712H31.0412V82.1334Z" fill="#EDA018"></path><path d="M31.0744 82.1334H31.041V87.5712H31.0744V82.1334Z" fill="#ED9F18"></path><path d="M31.1076 82.1334H31.0742V87.5712H31.1076V82.1334Z" fill="#ED9E19"></path><path d="M31.1408 82.1334H31.1074V87.5712H31.1408V82.1334Z" fill="#ED9D1A"></path><path d="M31.174 82.1334H31.1406V87.5712H31.174V82.1334Z" fill="#ED9C1B"></path><path d="M31.2091 82.1334H31.1758V87.5712H31.2091V82.1334Z" fill="#EE9B1B"></path><path d="M31.2423 82.1334H31.209V87.5712H31.2423V82.1334Z" fill="#EE9A1C"></path><path d="M31.2755 82.1334H31.2422V87.5712H31.2755V82.1334Z" fill="#EE991D"></path><path d="M31.3087 82.1334H31.2754V87.5712H31.3087V82.1334Z" fill="#EE981D"></path><path d="M31.3419 82.1334H31.3086V87.5712H31.3419V82.1334Z" fill="#EE971E"></path><path d="M31.3751 82.1334H31.3418V87.5712H31.3751V82.1334Z" fill="#EF961F"></path><path d="M31.4083 82.1334H31.375V87.5712H31.4083V82.1334Z" fill="#EF9420"></path><path d="M31.4415 82.1334H31.4082V87.5712H31.4415V82.1334Z" fill="#EF9320"></path><path d="M31.4747 82.1334H31.4414V87.5712H31.4747V82.1334Z" fill="#EF9221"></path><path d="M31.508 82.1334H31.4746V87.5712H31.508V82.1334Z" fill="#EF9122"></path><path d="M31.5412 82.1334H31.5078V87.5712H31.5412V82.1334Z" fill="#F09022"></path><path d="M31.5744 82.1334H31.541V87.5712H31.5744V82.1334Z" fill="#F08F23"></path><path d="M31.6076 82.1334H31.5742V87.5712H31.6076V82.1334Z" fill="#F08E24"></path><path d="M31.6408 82.1334H31.6074V87.5712H31.6408V82.1334Z" fill="#F08D25"></path><path d="M31.6759 82.1334H31.6426V87.5712H31.6759V82.1334Z" fill="#F18C25"></path><path d="M31.7091 82.1334H31.6758V87.5712H31.7091V82.1334Z" fill="#F18B26"></path><path d="M31.7423 82.1334H31.709V87.5712H31.7423V82.1334Z" fill="#F18A27"></path><path d="M31.7755 82.1334H31.7422V87.5712H31.7755V82.1334Z" fill="#F18928"></path><path d="M31.8087 82.1334H31.7754V87.5712H31.8087V82.1334Z" fill="#F18828"></path><path d="M31.8419 82.1334H31.8086V87.5712H31.8419V82.1334Z" fill="#F28729"></path><path d="M31.8751 82.1334H31.8418V87.5712H31.8751V82.1334Z" fill="#F2862A"></path><path d="M31.9083 82.1334H31.875V87.5712H31.9083V82.1334Z" fill="#F2852A"></path><path d="M31.9415 82.1334H31.9082V87.5712H31.9415V82.1334Z" fill="#F2842B"></path><path d="M31.9747 82.1334H31.9414V87.5712H31.9747V82.1334Z" fill="#F2832C"></path><path d="M32.008 82.1334H31.9746V87.5712H32.008V82.1334Z" fill="#F3822D"></path><path d="M32.0412 82.1334H32.0078V87.5712H32.0412V82.1334Z" fill="#F3812D"></path><path d="M32.0744 82.1334H32.041V87.5712H32.0744V82.1334Z" fill="#F3802E"></path><path d="M32.1076 82.1334H32.0742V87.5712H32.1076V82.1334Z" fill="#F37F2F"></path><path d="M32.1427 82.1334H32.1094V87.5712H32.1427V82.1334Z" fill="#F37E2F"></path><path d="M32.1759 82.1334H32.1426V87.5712H32.1759V82.1334Z" fill="#F47D30"></path><path d="M32.2091 82.1334H32.1758V87.5712H32.2091V82.1334Z" fill="#F47C31"></path><path d="M32.2423 82.1334H32.209V87.5712H32.2423V82.1334Z" fill="#F47B32"></path><path d="M32.2755 82.1334H32.2422V87.5712H32.2755V82.1334Z" fill="#F47A32"></path><path d="M32.3087 82.1334H32.2754V87.5712H32.3087V82.1334Z" fill="#F47933"></path><path d="M32.3419 82.1334H32.3086V87.5712H32.3419V82.1334Z" fill="#F57834"></path><path d="M32.3751 82.1334H32.3418V87.5712H32.3751V82.1334Z" fill="#F57734"></path><path d="M32.4083 82.1334H32.375V87.5712H32.4083V82.1334Z" fill="#F57635"></path><path d="M32.4415 82.1334H32.4082V87.5712H32.4415V82.1334Z" fill="#F57536"></path><path d="M32.4747 82.1334H32.4414V87.5712H32.4747V82.1334Z" fill="#F67437"></path><path d="M32.508 82.1334H32.4746V87.5712H32.508V82.1334Z" fill="#F67337"></path><path d="M32.5412 82.1334H32.5078V87.5712H32.5412V82.1334Z" fill="#F67238"></path><path d="M32.5744 82.1334H32.541V87.5712H32.5744V82.1334Z" fill="#F67139"></path><path d="M32.6095 82.1334H32.5762V87.5712H32.6095V82.1334Z" fill="#F67039"></path><path d="M32.6427 82.1334H32.6094V87.5712H32.6427V82.1334Z" fill="#F76F3A"></path><path d="M32.6759 82.1334H32.6426V87.5712H32.6759V82.1334Z" fill="#F76E3B"></path><path d="M32.7091 82.1334H32.6758V87.5712H32.7091V82.1334Z" fill="#F76D3C"></path><path d="M32.7423 82.1334H32.709V87.5712H32.7423V82.1334Z" fill="#F76C3C"></path><path d="M32.7755 82.1334H32.7422V87.5712H32.7755V82.1334Z" fill="#F76B3D"></path><path d="M32.8087 82.1334H32.7754V87.5712H32.8087V82.1334Z" fill="#F86A3E"></path><path d="M32.8419 82.1334H32.8086V87.5712H32.8419V82.1334Z" fill="#F8693E"></path><path d="M32.8751 82.1334H32.8418V87.5712H32.8751V82.1334Z" fill="#F8683F"></path><path d="M32.9083 82.1334H32.875V87.5712H32.9083V82.1334Z" fill="#F86740"></path><path d="M32.9415 82.1334H32.9082V87.5712H32.9415V82.1334Z" fill="#F86641"></path><path d="M32.9747 82.1334H32.9414V87.5712H32.9747V82.1334Z" fill="#F96541"></path><path d="M33.0079 82.1334H32.9746V87.5712H33.0079V82.1334Z" fill="#F96442"></path><path d="M33.0412 82.1334H33.0078V87.5712H33.0412V82.1334Z" fill="#F96343"></path><path d="M33.0763 82.1334H33.043V87.5712H33.0763V82.1334Z" fill="#F96243"></path><path d="M33.1095 82.1334H33.0762V87.5712H33.1095V82.1334Z" fill="#F96144"></path><path d="M33.1427 82.1334H33.1094V87.5712H33.1427V82.1334Z" fill="#FA6045"></path><path d="M33.1759 82.1334H33.1426V87.5712H33.1759V82.1334Z" fill="#FA5F46"></path><path d="M33.2091 82.1334H33.1758V87.5712H33.2091V82.1334Z" fill="#FA5E46"></path><path d="M33.2423 82.1334H33.209V87.5712H33.2423V82.1334Z" fill="#FA5D47"></path><path d="M33.2755 82.1334H33.2422V87.5712H33.2755V82.1334Z" fill="#FB5C48"></path><path d="M33.3087 82.1334H33.2754V87.5712H33.3087V82.1334Z" fill="#FB5B48"></path><path d="M33.3419 82.1334H33.3086V87.5712H33.3419V82.1334Z" fill="#FB5A49"></path><path d="M33.3751 82.1334H33.3418V87.5712H33.3751V82.1334Z" fill="#FB594A"></path><path d="M33.4083 82.1334H33.375V87.5712H33.4083V82.1334Z" fill="#FB584A"></path><path d="M33.4415 82.1334H33.4082V87.5712H33.4415V82.1334Z" fill="#FC574B"></path><path d="M33.4747 82.1334H33.4414V87.5712H33.4747V82.1334Z" fill="#FC564C"></path><path d="M33.508 82.1334H33.4746V87.5712H33.508V82.1334Z" fill="#FC554D"></path><path d="M33.5431 82.1334H33.5098V87.5712H33.5431V82.1334Z" fill="#FC544D"></path><path d="M33.5763 82.1334H33.543V87.5712H33.5763V82.1334Z" fill="#FC534E"></path><path d="M33.6095 82.1334H33.5762V87.5712H33.6095V82.1334Z" fill="#FD524F"></path><path d="M33.6427 82.1334H33.6094V87.5712H33.6427V82.1334Z" fill="#FD514F"></path><path d="M33.6759 82.1334H33.6426V87.5712H33.6759V82.1334Z" fill="#FD5050"></path><path d="M33.7091 82.1334H33.6758V87.5712H33.7091V82.1334Z" fill="#FD4F51"></path><path d="M33.7423 82.1334H33.709V87.5712H33.7423V82.1334Z" fill="#FD4E51"></path><path d="M33.7755 82.1334H33.7422V87.5712H33.7755V82.1334Z" fill="#FE4D52"></path><path d="M33.8087 82.1334H33.7754V87.5712H33.8087V82.1334Z" fill="#FE4C53"></path><path d="M33.8419 82.1334H33.8086V87.5712H33.8419V82.1334Z" fill="#FE4B54"></path><path d="M33.8751 82.1334H33.8418V87.5712H33.8751V82.1334Z" fill="#FE4A54"></path><path d="M33.9083 82.1334H33.875V87.5712H33.9083V82.1334Z" fill="#FE4955"></path><path d="M33.9415 82.1334H33.9082V87.5712H33.9415V82.1334Z" fill="#FF4856"></path><path d="M33.9747 82.1334H33.9414V87.5712H33.9747V82.1334Z" fill="#FF4756"></path><path d="M34.0099 82.1334H33.9766V87.5712H34.0099V82.1334Z" fill="#FF4657"></path><path d="M34.5099 82.1334H34.0098V87.5712H34.5099V82.1334Z" fill="#FF4657"></path></g><path d="M91.6252 85.2693C90.1914 84.1684 89.3245 82.4003 89.2912 80.5989V76.1619C89.2912 76.1619 89.3912 75.8617 89.5579 75.8617C89.7246 75.8617 89.858 75.9951 89.858 76.1619V80.5989C89.8913 82.2335 90.6582 83.8015 91.9586 84.7689L96.4932 87.2376L100.994 84.7022C102.262 83.7014 103.028 82.1334 103.028 80.4988L102.962 71.8251L96.3932 69.9235L89.858 71.9251V72.6257C89.858 72.6257 89.7246 72.926 89.5579 72.926C89.3912 72.926 89.2578 72.7925 89.2578 72.6257V71.4915L96.3932 69.323L103.562 71.3914L103.629 80.4988C103.629 82.3002 102.795 84.0684 101.361 85.2026H101.328L96.5266 87.9382L91.6918 85.2693H91.6252Z" fill="#1F7AFF"></path><path d="M96.4938 88.0382H96.4604L91.5924 85.336C90.1253 84.2018 89.2584 82.4337 89.225 80.5989V76.1619C89.225 76.1619 89.225 75.9618 89.2917 75.895C89.3584 75.8283 89.4584 75.795 89.5585 75.795C89.5585 75.795 89.7585 75.8283 89.8252 75.895C89.8919 75.9618 89.9252 76.0618 89.9252 76.1619V80.5989C89.9586 82.2002 90.7255 83.7347 91.9925 84.7356L96.4604 87.1709L100.895 84.6688C102.129 83.668 102.896 82.1334 102.862 80.5321L102.796 71.9251L96.3271 70.057L89.8585 72.0252V72.6591C89.8585 72.6591 89.8252 72.8592 89.7585 72.926C89.6918 72.9927 89.5918 73.026 89.4918 73.026C89.3917 73.026 89.2917 72.9927 89.225 72.926C89.1583 72.8592 89.125 72.7592 89.125 72.6591V71.4581H89.1917L96.3271 69.2897L103.529 71.3914V71.4581L103.596 80.5655C103.596 82.4003 102.762 84.2018 101.295 85.336H101.262L96.4271 88.105L96.4938 88.0382ZM91.6924 85.2026L96.4938 87.8381L101.262 85.1359C102.662 84.035 103.496 82.3002 103.496 80.4988L103.429 71.4581L96.3604 69.3897L89.3251 71.5248V72.5923C89.3251 72.5923 89.3251 72.6924 89.3917 72.7591C89.4251 72.7925 89.4918 72.8259 89.5251 72.8259C89.5251 72.8259 89.6251 72.8259 89.6585 72.7591C89.6918 72.7258 89.7252 72.6591 89.7252 72.5923V71.8584H89.7919L96.3604 69.8568L102.996 71.7917V71.8584L103.062 80.5321C103.062 82.1668 102.295 83.7681 101.028 84.8023L96.4938 87.371H96.4604L91.9258 84.869C90.5921 83.8682 89.8252 82.2669 89.7919 80.5989V76.1619C89.7919 76.1619 89.7252 76.0618 89.6918 76.0285C89.6585 75.9951 89.5918 75.9618 89.5585 75.9618C89.5585 75.9618 89.4584 75.9618 89.4251 76.0285C89.3917 76.0618 89.3584 76.1286 89.3584 76.1953V80.6322C89.3917 82.4337 90.2587 84.1351 91.6924 85.236V85.2026Z" fill="#1F7AFF"></path><mask id="mask2_1_213" style="mask-type:luminance" maskUnits="userSpaceOnUse" x="91" y="77" width="10" height="7"><path d="M100.695 77.8967L91.9258 77.8299V79.4312C91.9258 80.5321 92.4593 81.5997 93.3595 82.2669L96.3604 83.9015L99.3279 82.2335C100.195 81.533 100.695 80.4988 100.695 79.3645V77.8967Z" fill="white"></path></mask><g mask="url(#mask2_1_213)"><path d="M91.9258 80.332L97.4607 83.9349H91.9258V80.332Z" fill="#EAAC0F"></path><path d="M91.9258 80.1985L97.6608 83.9349H97.4607L91.9258 80.332V80.1985Z" fill="#EAAC0F"></path><path d="M91.9258 80.0985L97.8275 83.9349H97.6608L91.9258 80.1985V80.0985Z" fill="#EAAB10"></path><path d="M91.9258 79.965L98.0275 83.9349H97.8275L91.9258 80.0985V79.965Z" fill="#EAAA10"></path><path d="M91.9258 79.8316L98.2276 83.9349H98.0275L91.9258 79.965V79.8316Z" fill="#EBA911"></path><path d="M91.9258 79.6981L98.4276 83.9349H98.2276L91.9258 79.8316V79.6981Z" fill="#EBA812"></path><path d="M91.9258 79.5647L98.6277 83.9349H98.4276L91.9258 79.6981V79.5647Z" fill="#EBA713"></path><path d="M91.9258 79.4312L98.8277 83.9349H98.6277L91.9258 79.5647V79.4312Z" fill="#EBA613"></path><path d="M91.9258 79.2978L99.0278 83.9349H98.8277L91.9258 79.4312V79.2978Z" fill="#EBA514"></path><path d="M91.9258 79.1644L99.2279 83.9349H99.0278L91.9258 79.2978V79.1644Z" fill="#ECA415"></path><path d="M91.9258 79.0643L99.4279 83.9349H99.2279L91.9258 79.1644V79.0643Z" fill="#ECA316"></path><path d="M91.9258 78.9308L99.628 83.9349H99.4279L91.9258 79.0643V78.9308Z" fill="#ECA216"></path><path d="M91.9258 78.7974L99.828 83.9349H99.628L91.9258 78.9308V78.7974Z" fill="#ECA117"></path><path d="M91.9258 78.664L100.028 83.9349H99.828L91.9258 78.7974V78.664Z" fill="#EDA018"></path><path d="M91.9258 78.5305L100.228 83.9349H100.028L91.9258 78.664V78.5305Z" fill="#ED9F18"></path><path d="M91.9258 78.3971L100.428 83.9349H100.228L91.9258 78.5305V78.3971Z" fill="#ED9E19"></path><path d="M91.9258 78.2636L100.628 83.9349H100.428L91.9258 78.3971V78.2636Z" fill="#ED9D1A"></path><path d="M91.9258 78.1302L100.695 83.8348V83.9349H100.628L91.9258 78.2636V78.1302Z" fill="#ED9C1B"></path><path d="M91.9258 78.0301L100.695 83.7014V83.8348L91.9258 78.1302V78.0301Z" fill="#EE9B1B"></path><path d="M91.9258 77.8967L100.695 83.5679V83.7014L91.9258 78.0301V77.8967Z" fill="#EE9A1C"></path><path d="M92.0258 77.8299L100.695 83.4679V83.5679L91.9258 77.8967V77.8299H92.0258Z" fill="#EE991D"></path><path d="M92.2254 77.8299L100.695 83.3344V83.4679L92.0254 77.8299H92.2254Z" fill="#EE981D"></path><path d="M92.4266 77.8299L100.696 83.201V83.3344L92.2266 77.8299H92.4266Z" fill="#EE971E"></path><path d="M92.6258 77.8299L100.695 83.0675V83.201L92.4258 77.8299H92.6258Z" fill="#EF961F"></path><path d="M92.827 77.8299L100.696 82.9341V83.0675L92.627 77.8299H92.827Z" fill="#EF9420"></path><path d="M93.0262 77.8299L100.695 82.8007V82.9341L92.8262 77.8299H93.0262Z" fill="#EF9320"></path><path d="M93.2254 77.8299L100.694 82.6672V82.8006L93.0254 77.8299H93.2254Z" fill="#EF9221"></path><path d="M93.4266 77.8299L100.695 82.5338V82.6672L93.2266 77.8299H93.4266Z" fill="#EF9122"></path><path d="M93.6258 77.8299L100.695 82.4337V82.5338L93.4258 77.8299H93.6258Z" fill="#F09022"></path><path d="M93.827 77.8299L100.696 82.3002V82.4337L93.627 77.8299H93.827Z" fill="#F08F23"></path><path d="M94.0262 77.8299L100.695 82.1668V82.3002L93.8262 77.8299H94.0262Z" fill="#F08E24"></path><path d="M94.2274 77.8299L100.696 82.0334V82.1668L94.0273 77.8299H94.2274Z" fill="#F08D25"></path><path d="M94.4266 77.8299L100.695 81.8999V82.0334L94.2266 77.8299H94.4266Z" fill="#F18C25"></path><path d="M94.6258 77.8299L100.694 81.7665V81.8999L94.4258 77.8299H94.6258Z" fill="#F18B26"></path><path d="M94.827 77.8299L100.695 81.633V81.7665L94.627 77.8299H94.827Z" fill="#F18A27"></path><path d="M95.0262 77.8299L100.695 81.4996V81.633L94.8262 77.8299H95.0262Z" fill="#F18928"></path><path d="M95.2274 77.8299L100.696 81.3995V81.4996L95.0273 77.8299H95.2274Z" fill="#F18828"></path><path d="M95.4266 77.8299L100.695 81.2661V81.3995L95.2266 77.8299H95.4266Z" fill="#F28729"></path><path d="M95.6278 77.8299L100.696 81.1326V81.2661L95.4277 77.8299H95.6278Z" fill="#F2862A"></path><path d="M95.827 77.8299L100.695 80.9992V81.1326L95.627 77.8299H95.827Z" fill="#F2852A"></path><path d="M96.0262 77.8299L100.694 80.8657V80.9992L95.8262 77.8299H96.0262Z" fill="#F2842B"></path><path d="M96.2274 77.8299L100.695 80.7323V80.8657L96.0273 77.8299H96.2274Z" fill="#F2832C"></path><path d="M96.4266 77.8299L100.695 80.5989V80.7323L96.2266 77.8299H96.4266Z" fill="#F3822D"></path><path d="M96.6278 77.8299L100.696 80.4654V80.5989L96.4277 77.8299H96.6278Z" fill="#F3812D"></path><path d="M96.827 77.8299L100.695 80.3653V80.4654L96.627 77.8299H96.827Z" fill="#F3802E"></path><path d="M97.0282 77.8299L100.696 80.2319V80.3653L96.8281 77.8299H97.0282Z" fill="#F37F2F"></path><path d="M97.2274 77.8299L100.695 80.0985V80.2319L97.0273 77.8299H97.2274Z" fill="#F37E2F"></path><path d="M97.3933 77.8299L100.694 79.965V80.0985L97.2266 77.8299H97.3933Z" fill="#F47D30"></path><path d="M97.5946 77.8299L100.695 79.8316V79.965L97.3945 77.8299H97.5946Z" fill="#F47C31"></path><path d="M97.7938 77.8299L100.695 79.6981V79.8316L97.5938 77.8299H97.7938Z" fill="#F47B32"></path><path d="M97.995 77.8299L100.696 79.5647V79.6981L97.7949 77.8299H97.995Z" fill="#F47A32"></path><path d="M98.1942 77.8299L100.695 79.4312V79.5647L97.9941 77.8299H98.1942Z" fill="#F47933"></path><path d="M98.3934 77.8299L100.694 79.3312V79.4312L98.1934 77.8299H98.3934Z" fill="#F57834"></path><path d="M98.5946 77.8299L100.695 79.1977V79.3312L98.3945 77.8299H98.5946Z" fill="#F57734"></path><path d="M98.7938 77.8299L100.694 79.0643V79.1977L98.5938 77.8299H98.7938Z" fill="#F57635"></path><path d="M98.995 77.8299L100.695 78.9308V79.0643L98.7949 77.8299H98.995Z" fill="#F57536"></path><path d="M99.1942 77.8299L100.695 78.7974V78.9308L98.9941 77.8299H99.1942Z" fill="#F67437"></path><path d="M99.3954 77.8299L100.696 78.664V78.7974L99.1953 77.8299H99.3954Z" fill="#F67337"></path><path d="M99.5946 77.8299L100.695 78.5305V78.664L99.3945 77.8299H99.5946Z" fill="#F67238"></path><path d="M99.7938 77.8299L100.694 78.4304V78.5305L99.5938 77.8299H99.7938Z" fill="#F67139"></path><path d="M99.995 77.8299L100.695 78.297V78.4304L99.7949 77.8299H99.995Z" fill="#F67039"></path><path d="M100.194 77.8299L100.694 78.1635V78.297L99.9941 77.8299H100.194Z" fill="#F76F3A"></path><path d="M100.395 77.8299L100.695 78.0301V78.1635L100.195 77.8299H100.395Z" fill="#F76E3B"></path><path d="M100.595 77.8299L100.695 77.8967V78.0301L100.395 77.8299H100.595Z" fill="#F76D3C"></path><path d="M100.696 77.8967L100.596 77.8299H100.696V77.8967Z" fill="#F76C3C"></path></g><path d="M71.1194 71.6249H48.7797C48.4667 71.6249 48.2129 71.8713 48.2129 72.1753C48.2129 72.4793 48.4667 72.7258 48.7797 72.7258H71.1194C71.4325 72.7258 71.6862 72.4793 71.6862 72.1753C71.6862 71.8713 71.4325 71.6249 71.1194 71.6249Z" fill="#17468C"></path><path d="M67.7184 77.2295H48.7797C48.4667 77.2295 48.2129 77.4759 48.2129 77.7799C48.2129 78.0839 48.4667 78.3303 48.7797 78.3303H67.7184C68.0315 78.3303 68.2853 78.0839 68.2853 77.7799C68.2853 77.4759 68.0315 77.2295 67.7184 77.2295Z" fill="#17468C"></path><path d="M56.782 82.8007H48.7797C48.4667 82.8007 48.2129 83.0471 48.2129 83.3511C48.2129 83.6551 48.4667 83.9015 48.7797 83.9015H56.782C57.0951 83.9015 57.3488 83.6551 57.3488 83.3511C57.3488 83.0471 57.0951 82.8007 56.782 82.8007Z" fill="#17468C"></path><path d="M79.1895 98.6469V111.624H105.697L108.698 115.694V111.624V98.6469H79.1895Z" fill="white"></path><path d="M96.0943 118.229V131.207H69.5868L66.5859 135.277V131.207V118.229H96.0943Z" fill="#17468C"></path><path d="M52.8826 98.6802H22.4406C20.7464 98.6802 19.373 100.054 19.373 101.749V132.207C19.373 133.903 20.7464 135.277 22.4406 135.277H52.8826C54.5767 135.277 55.9501 133.903 55.9501 132.207V101.749C55.9501 100.054 54.5767 98.6802 52.8826 98.6802Z" fill="white"></path><mask id="mask3_1_213" style="mask-type:luminance" maskUnits="userSpaceOnUse" x="45" y="110" width="5" height="7"><path d="M49.1812 112.091C49.8148 113.659 49.0479 115.461 47.4474 116.094H47.3474L46.2804 113.426L45.0801 110.39H45.1801C46.7806 109.723 48.5477 110.49 49.1812 112.058V112.091Z" fill="white"></path></mask><g mask="url(#mask3_1_213)"><path d="M45.7137 109.723L48.2478 116.128H45.0469V109.723H45.7137Z" fill="#EAAC0F"></path><path d="M47.2814 109.723L49.8154 116.128H49.7821L47.248 109.723H47.2814Z" fill="#F86641"></path><path d="M47.2812 109.723L49.8153 116.061V116.128L47.2812 109.723Z" fill="#F96541"></path><path d="M47.3146 109.723L49.8153 116.028V116.061L47.2812 109.723H47.3146Z" fill="#F96442"></path><path d="M47.3145 109.723L49.8152 115.961V116.028L47.3145 109.723Z" fill="#F96343"></path><path d="M47.3478 109.723L49.8152 115.894V115.961L47.3145 109.723H47.3478Z" fill="#F96243"></path><path d="M47.381 109.723L49.815 115.861V115.894L47.3477 109.723H47.381Z" fill="#F96144"></path><path d="M47.3809 109.723L49.8149 115.794V115.861L47.3809 109.723Z" fill="#FA6045"></path><path d="M47.4142 109.723L49.8149 115.727V115.794L47.3809 109.723H47.4142Z" fill="#FA5F46"></path><path d="M47.4474 109.723L49.8147 115.694V115.727L47.4141 109.723H47.4474Z" fill="#FA5E46"></path><path d="M47.4473 109.723L49.8146 115.627V115.694L47.4473 109.723Z" fill="#FA5D47"></path><path d="M47.4806 109.723L49.8146 115.561V115.627L47.4473 109.723H47.4806Z" fill="#FB5C48"></path><path d="M47.5138 109.723L49.8145 115.527V115.561L47.4805 109.723H47.5138Z" fill="#FB5B48"></path><path d="M47.5137 109.723L49.8143 115.461V115.527L47.5137 109.723Z" fill="#FB5A49"></path><path d="M47.547 109.723L49.8143 115.394V115.461L47.5137 109.723H47.547Z" fill="#FB594A"></path><path d="M47.5802 109.723L49.8142 115.36V115.394L47.5469 109.723H47.5802Z" fill="#FB584A"></path><path d="M47.5801 109.723L49.814 115.294V115.36L47.5801 109.723Z" fill="#FC574B"></path><path d="M47.6134 109.723L49.814 115.227V115.294L47.5801 109.723H47.6134Z" fill="#FC564C"></path><path d="M47.6486 109.723L49.8159 115.194V115.227L47.6152 109.723H47.6486Z" fill="#FC554D"></path><path d="M47.6484 109.723L49.8157 115.127V115.194L47.6484 109.723Z" fill="#FC544D"></path><path d="M47.6818 109.723L49.8157 115.06V115.127L47.6484 109.723H47.6818Z" fill="#FC534E"></path><path d="M47.715 109.723L49.8156 115.027V115.06L47.6816 109.723H47.715Z" fill="#FD524F"></path><path d="M47.7148 109.723L49.8154 114.96V115.027L47.7148 109.723Z" fill="#FD514F"></path><path d="M47.7482 109.723L49.8154 114.893V114.96L47.7148 109.723H47.7482Z" fill="#FD5050"></path><path d="M47.7814 109.723L49.8153 114.86V114.893L47.748 109.723H47.7814Z" fill="#FD4F51"></path><path d="M47.7812 109.723L49.8152 114.793V114.86L47.7812 109.723Z" fill="#FD4E51"></path><path d="M47.8146 109.723L49.8152 114.727V114.793L47.7812 109.723H47.8146Z" fill="#FE4D52"></path><path d="M47.8478 109.723L49.815 114.693V114.727L47.8145 109.723H47.8478Z" fill="#FE4C53"></path><path d="M47.8477 109.723L49.8149 114.627V114.693L47.8477 109.723Z" fill="#FE4B54"></path><path d="M47.881 109.723L49.8149 114.56V114.627L47.8477 109.723H47.881Z" fill="#FE4A54"></path><path d="M47.9142 109.723L49.8147 114.526V114.56L47.8809 109.723H47.9142Z" fill="#FE4955"></path><path d="M47.9141 109.723L49.8146 114.46V114.526L47.9141 109.723Z" fill="#FF4856"></path><path d="M47.9474 109.723L49.8146 114.393V114.46L47.9141 109.723H47.9474Z" fill="#FF4756"></path><path d="M47.9806 109.723L49.8145 114.36V114.393L47.9473 109.723H47.9806Z" fill="#FF4657"></path><path d="M49.8143 114.36L47.9805 109.723H49.8143V114.36Z" fill="#FF4657"></path></g><path d="M36.4437 128.638C34.4764 128.638 32.6426 127.47 31.8757 125.535C31.809 125.402 31.7757 125.235 31.709 125.102L32.2758 124.935C32.2758 124.935 32.3425 125.202 32.4092 125.335C33.2761 127.537 35.8102 128.638 38.0108 127.737C39.0777 127.304 39.9113 126.503 40.3781 125.435C40.8449 124.368 40.8449 123.2 40.4115 122.133L40.9783 121.899C41.4784 123.133 41.4451 124.468 40.9116 125.669C40.3781 126.87 39.4445 127.804 38.2108 128.271C37.6107 128.504 37.0105 128.605 36.4103 128.605L36.4437 128.638Z" fill="black"></path><path d="M31.5764 125.402C29.1424 125.402 26.9418 123.934 26.0082 121.599C25.408 120.098 25.4413 118.43 26.0749 116.962C26.7084 115.461 27.9087 114.326 29.3758 113.759L30.6762 113.225C30.6762 113.225 30.8762 113.159 30.9429 113.125C32.4767 112.625 34.0105 111.991 35.5109 111.224L35.7776 111.758C34.2439 112.558 32.6767 113.192 31.143 113.692C31.0763 113.692 30.9763 113.759 30.8762 113.793L29.5759 114.293C28.2421 114.827 27.1752 115.861 26.575 117.195C26.0082 118.53 25.9748 120.031 26.5083 121.399C27.4086 123.634 29.5759 125.002 31.9765 124.801C32.51 124.801 33.0435 124.635 33.6103 124.434L35.1775 123.767C36.9446 122.933 38.8118 122.266 40.6457 121.799C44.5468 120.798 47.681 120.798 48.8147 120.865L47.5476 117.696L45.9472 113.592L43.0797 106.453C42.5129 107.02 41.2125 108.255 39.312 109.622L38.9785 109.122C41.5459 107.321 42.9797 105.719 42.9797 105.686L43.3131 105.319L44.7135 108.922L46.5474 113.426L49.7483 121.499H49.2481C49.2481 121.499 45.5471 121.132 40.779 122.366C38.9452 122.8 37.1447 123.467 35.4109 124.268L35.1441 124.401L33.8104 124.968C33.2102 125.202 32.5767 125.335 32.0099 125.369C31.8432 125.369 31.6765 125.369 31.5431 125.369L31.5764 125.402Z" fill="#1F7AFF"></path><path d="M35.0431 124.134L30.8086 113.492L31.3754 113.259L35.61 123.934L35.0431 124.134Z" fill="#1F7AFF"></path><path d="M263.641 47.0049C270.362 47.0049 275.811 41.5532 275.811 34.8283C275.811 28.1034 270.362 22.6517 263.641 22.6517C256.919 22.6517 251.471 28.1034 251.471 34.8283C251.471 41.5532 256.919 47.0049 263.641 47.0049Z" fill="#FFA633"></path><path d="M325.727 94.8438V94.5435H293.251V94.8438H325.727Z" fill="white"></path><path d="M325.727 98.5134V98.2132H293.251V98.5134H325.727Z" fill="white"></path><path d="M325.727 102.216V101.916H293.251V102.216H325.727Z" fill="white"></path><path d="M325.727 105.886V105.586H293.251V105.886H325.727Z" fill="white"></path><path d="M325.727 109.589V109.289H293.251V109.589H325.727Z" fill="white"></path><path d="M325.76 113.259V112.958H293.284V113.259H325.76Z" fill="white"></path><path d="M297.752 91.441H297.352V116.395H297.752V91.441Z" fill="white"></path><path d="M302.586 91.441H302.186V116.395H302.586V91.441Z" fill="white"></path><path d="M307.388 91.441H306.988V116.395H307.388V91.441Z" fill="white"></path><path d="M312.222 91.441H311.822V116.395H312.222V91.441Z" fill="white"></path><path d="M317.023 91.441H316.623V116.395H317.023V91.441Z" fill="white"></path><path d="M321.859 91.441H321.459V116.395H321.859V91.441Z" fill="white"></path></g><defs><clipPath id="clip0_1_213"><rect width="351" height="328" fill="white"></rect></clipPath></defs></svg>