<svg xmlns="http://www.w3.org/2000/svg" width="431" height="376" viewBox="0 0 431 376" fill="none"><g clip-path="url(#clip0_1_215)"><g clip-path="url(#clip1_1_215)"><path d="M17.6164 259.407C15.2215 259.407 13.2617 257.467 13.2617 255.092C13.2617 252.717 15.2215 250.777 17.6164 250.777C20.0113 250.777 21.9711 252.717 21.9711 255.092C21.9711 257.467 20.0113 259.407 17.6164 259.407ZM17.6164 252.547C16.1795 252.547 15.0021 253.713 15.0021 255.092C15.0021 256.471 16.1795 257.68 17.6164 257.68C19.0534 257.68 20.2271 256.515 20.2271 255.092C20.2271 253.669 19.0534 252.547 17.6164 252.547Z" fill="black"></path><path d="M17.6164 246.51C15.2215 246.51 13.2617 244.569 13.2617 242.195V193.589C13.2617 191.218 15.2215 189.274 17.6164 189.274C20.0113 189.274 21.9711 191.214 21.9711 193.589V242.195C21.9711 244.566 20.0113 246.51 17.6164 246.51ZM17.6164 191.044C16.1795 191.044 15.0021 192.21 15.0021 193.632V242.238C15.0021 243.661 16.1795 244.826 17.6164 244.826C19.0534 244.826 20.2271 243.661 20.2271 242.238V193.632C20.2271 192.21 19.0534 191.044 17.6164 191.044Z" fill="#1F7AFF"></path><path d="M324.285 315.767L337.627 338.22L338.04 337.977L324.698 315.528L324.285 315.767Z" fill="#002B6E"></path><path d="M319.086 315.767L332.428 338.22L332.841 337.977L319.499 315.528L319.086 315.767Z" fill="#002B6E"></path><path d="M313.887 315.767L327.229 338.22L327.642 337.977L314.3 315.528L313.887 315.767Z" fill="#002B6E"></path><path d="M308.684 315.767L322.026 338.22L322.439 337.977L309.097 315.528L308.684 315.767Z" fill="#002B6E"></path><path d="M303.484 315.767L316.826 338.22L317.24 337.977L303.898 315.528L303.484 315.767Z" fill="#002B6E"></path><path d="M298.285 315.767L311.627 338.22L312.04 337.977L298.698 315.528L298.285 315.767Z" fill="#002B6E"></path><path d="M293.086 315.767L306.428 338.22L306.841 337.977L293.499 315.528L293.086 315.767Z" fill="#002B6E"></path><path d="M287.887 315.767L301.229 338.22L301.642 337.977L288.3 315.528L287.887 315.767Z" fill="#002B6E"></path><path d="M328.746 315.799L342.297 338.227L342.706 337.985L329.156 315.557L328.746 315.799Z" fill="#002B6E"></path><path d="M333.158 315.843L333.593 315.586L347.352 338.014L346.961 338.271L333.158 315.843Z" fill="#002B6E"></path><path d="M337.645 315.843L338.036 315.586L352.014 338.014L351.623 338.271L337.645 315.843Z" fill="#002B6E"></path><path d="M342.129 315.843L342.52 315.586L356.714 338.014L356.323 338.271L342.129 315.843Z" fill="#002B6E"></path><path d="M346.527 315.843L346.962 315.586L361.332 338.014L360.941 338.271L346.527 315.843Z" fill="#002B6E"></path><path d="M366.252 338.401H274.983C274.979 338.242 274.975 338.082 274.972 337.927H365.382L351.057 315.929H247.955C247.973 315.77 247.992 315.614 248.017 315.455H351.32L366.252 338.401Z" fill="#002B6E"></path><path d="M208.642 357.723C219.018 357.723 227.428 349.39 227.428 339.114C227.428 328.837 219.015 320.505 208.642 320.505C198.269 320.505 189.855 328.837 189.855 339.114C189.855 349.39 198.269 357.723 208.642 357.723Z" fill="#1F7AFF"></path><path d="M137.143 327.686L136.39 343.78L135.373 365.553C122.422 360.554 110.283 353.944 99.2156 345.97C91.6104 340.493 84.5062 334.372 77.9905 327.686C75.2666 324.896 72.6486 322.007 70.1367 319.024L103.823 323.379L104.569 323.473L118.496 325.276L137.143 327.686Z" fill="#1A2651"></path><path d="M207.973 216.994V337.228C204.887 339.918 201.761 342.603 198.605 345.289C196.452 347.121 194.28 348.953 192.093 350.781H179.782L179.728 316.827L179.6 238.821L197.589 224.986L197.625 224.958L198.795 224.045L198.832 224.016L200.806 222.496L202.013 221.591L207.973 216.994Z" fill="#C0E0FB"></path><path d="M202.009 210.696H200.803V232.849H202.009V210.696Z" fill="#C0E0FB"></path><path d="M198.793 220.505H197.586V242.658H198.793V220.505Z" fill="#C0E0FB"></path><path d="M195.501 248.957H183.289V249.536H195.501V248.957Z" fill="white"></path><path d="M118.529 322.076H131.472C134.617 322.076 137.14 324.573 137.14 327.686H118.492V322.076H118.529Z" fill="#C0E0FB"></path><path d="M245.988 302.569V299.923L242.148 299.995V306.21L245.988 302.569Z" fill="#C0E0FB"></path><path d="M326.987 306.475C324.881 309.544 322.665 312.541 320.35 315.455C320.226 315.615 320.102 315.77 319.974 315.929C319.93 315.987 319.882 316.042 319.838 316.1C319.732 316.23 319.626 316.364 319.517 316.494C319.374 316.675 319.232 316.852 319.085 317.03C319.005 317.128 318.928 317.225 318.844 317.323C318.175 318.141 317.498 318.952 316.811 319.756C316.705 319.886 316.595 320.013 316.482 320.139C315.944 320.769 315.4 321.395 314.848 322.018C314.471 322.445 314.091 322.869 313.71 323.288C313.601 323.411 313.487 323.535 313.374 323.658C312.442 324.686 311.495 325.699 310.537 326.698C310.42 326.818 310.306 326.937 310.193 327.053C310.029 327.223 309.868 327.393 309.703 327.56C309.663 327.603 309.623 327.643 309.579 327.686H258.606C255.644 327.686 252.968 326.499 251.03 324.581C249.092 322.662 247.893 320.013 247.893 317.081C247.893 316.693 247.915 316.306 247.955 315.929C247.973 315.77 247.991 315.615 248.017 315.455C248.807 310.366 253.242 306.475 258.606 306.475H326.987Z" fill="#F3A84D"></path><path d="M143.611 288.086H143.209V296.991H143.611V288.086Z" fill="#C0E0FB"></path><path d="M152.971 296.991H141.344V298.728H152.971V296.991Z" fill="#C0E0FB"></path><path d="M162.042 373.27C154.086 371.699 139.738 367.001 132.254 364.311L135.947 298.692H167.051V371.033C165.991 371.862 164.931 372.687 163.867 373.513C163.83 373.542 163.79 373.571 163.75 373.603L162.042 373.27Z" fill="#C0E0FB"></path><path d="M175.53 309.334H163.902V316.986H175.53V309.334Z" fill="#C0E0FB"></path><path d="M162.043 373.27V316.827H198.606V345.289C196.453 347.121 194.281 348.953 192.094 350.781C183.952 357.589 175.597 364.358 167.052 371.033C165.992 371.862 164.931 372.687 163.867 373.513C163.831 373.542 163.791 373.571 163.75 373.603L162.043 373.27Z" fill="#C0E0FB"></path><path d="M206.676 320.501H180.898V321.117H206.676V320.501Z" fill="white"></path><path d="M165.859 307.633H140.082V308.248H165.859V307.633Z" fill="white"></path><path d="M165.859 327.379H140.082V327.994H165.859V327.379Z" fill="white"></path><path d="M165.859 350.473H140.082V351.088H165.859V350.473Z" fill="white"></path><path d="M241.089 295.76V307.213C238.705 309.461 236.292 311.716 233.85 313.978V295.76H241.089Z" fill="#C0E0FB"></path><path d="M193.782 66.01C198.384 66.01 202.115 62.3166 202.115 57.7606C202.115 53.2045 198.384 49.5111 193.782 49.5111C189.18 49.5111 185.449 53.2045 185.449 57.7606C185.449 62.3166 189.18 66.01 193.782 66.01Z" fill="#00A151"></path><path d="M233.852 309.334V313.978C232.989 314.778 232.126 315.578 231.256 316.375C227.201 320.114 223.07 323.86 218.869 327.614C218.869 327.618 218.861 327.621 218.858 327.625H218.854C215.278 330.825 211.651 334.028 207.973 337.228V309.334H233.852Z" fill="#C0E0FB"></path><path d="M163.749 374.327C163.537 374.327 163.329 374.237 163.186 374.063C162.93 373.755 162.974 373.299 163.285 373.046C163.318 373.02 163.351 372.995 163.38 372.97L163.413 372.944C164.477 372.119 165.537 371.294 166.598 370.465C174.875 363.996 183.296 357.187 191.622 350.227C193.808 348.399 195.995 346.553 198.13 344.739C201.527 341.847 204.587 339.212 207.49 336.685C211.044 333.594 214.704 330.365 218.364 327.089C218.375 327.078 218.39 327.067 218.401 327.057C222.653 323.259 226.81 319.484 230.759 315.846C231.629 315.05 232.492 314.25 233.355 313.45C235.787 311.198 238.218 308.925 240.591 306.688C240.946 306.355 241.297 306.026 241.648 305.689C242.763 304.639 243.867 303.59 244.964 302.547L245.249 302.279C245.322 302.207 245.406 302.127 245.491 302.048C313.411 237.319 357.664 179.776 358.102 179.204C365.861 169.314 372.124 160.819 376.724 153.941C376.834 153.775 377.013 153.663 377.21 153.626C377.411 153.594 377.613 153.641 377.773 153.764L408.67 176.894C409.927 177.835 411.522 177.98 412.933 177.285C414.337 176.594 415.174 175.258 415.174 173.709V5.45497C415.174 4.1048 414.523 2.89579 413.383 2.13926C412.249 1.38635 410.823 1.23794 409.562 1.74471L264.153 61.2174C262.781 61.7785 261.853 62.9766 261.67 64.4209C261.487 65.858 262.079 67.2371 263.253 68.1131L296.782 93.1981C296.939 93.3139 297.041 93.4912 297.067 93.6831C297.093 93.8749 297.038 94.0704 296.917 94.2224C272.153 125.302 220.58 185.097 153.46 236.385C153.139 236.631 152.681 236.57 152.436 236.255C152.192 235.94 152.25 235.484 152.568 235.241C219.147 184.365 270.405 125.092 295.308 93.9075L262.376 69.2678C260.774 68.0769 259.97 66.1946 260.222 64.2363C260.474 62.2708 261.736 60.6419 263.597 59.8781L409.002 0.405396C410.717 -0.285978 412.659 -0.0868915 414.194 0.937502C415.719 1.95466 416.629 3.64147 416.629 5.45497V173.702C416.629 175.779 415.459 177.647 413.576 178.574C411.682 179.508 409.463 179.305 407.777 178.045L377.503 155.378C372.929 162.169 366.793 170.476 359.254 180.083C358.819 180.652 314.504 238.278 246.496 303.09C246.419 303.166 246.342 303.235 246.266 303.311L245.973 303.59C244.873 304.636 243.768 305.685 242.657 306.732C242.309 307.065 241.951 307.401 241.596 307.734C239.224 309.971 236.785 312.248 234.353 314.503C233.49 315.303 232.624 316.107 231.754 316.903C227.797 320.552 223.633 324.331 219.373 328.139C219.366 328.146 219.359 328.153 219.351 328.161C219.337 328.175 219.322 328.186 219.304 328.2C215.651 331.469 212.002 334.687 208.455 337.775C205.549 340.309 202.485 342.947 199.08 345.839C196.945 347.657 194.751 349.506 192.565 351.334C184.228 358.306 175.793 365.126 167.504 371.601C166.444 372.43 165.384 373.256 164.316 374.081L164.214 374.161C164.078 374.273 163.914 374.327 163.749 374.327Z" fill="#FFA633"></path><path d="M190.974 263.761L179.42 262.132L178.25 262.458L171.998 287C174.996 287.543 182.053 289.027 182.053 289.027L190.974 263.761Z" fill="#30407B"></path><path d="M109.766 142.97L97.3348 141.811C97.3348 141.811 98.2123 155.53 90.7168 163.82L115.251 184.054C115.251 184.054 115.178 182.679 115.141 180.543C115.105 175.873 115.324 167.62 117.042 162.01L117.298 160.417L118.213 154.589L109.766 142.97Z" fill="#915740"></path><path d="M125.856 111.623L101.687 116.727L111.852 126.645L109.768 134.463C109.768 134.463 106.002 131.423 103.516 132.292C101.029 133.16 100.664 139.64 102.821 141.812C104.978 143.983 106.368 147.133 106.368 147.133C106.002 152.743 110.463 151.187 110.463 151.187L113.424 167.512L128.671 163.747L137.52 159.621L140.335 155.494L144.832 154.734C145.381 154.625 145.71 154.046 145.49 153.503L140.847 142.861L144.576 134.97C144.869 134.391 144.869 133.739 144.613 133.16L139.238 120.925L125.856 111.623Z" fill="#A76646"></path><path d="M139.238 120.925C144.796 119.297 143.297 112.962 140.116 108.365C141.066 110.102 144.723 117.27 139.238 120.925Z" fill="#434444"></path><path d="M117.3 160.417L114.448 153.757L110.39 151.151C110.39 151.151 105.929 166.462 112.181 180.434L115.179 180.543C115.143 175.873 115.362 167.62 117.081 162.01L117.3 160.417Z" fill="#743D34"></path><path d="M138.214 163.023C138.214 163.023 134.082 163.277 129.146 162.806C124.173 162.336 126.769 155.132 120.334 153.612C112.071 151.657 115.837 141.486 115.837 141.486L116.276 128.708L105.233 120.202C105.965 120.419 115.727 122.591 123.808 120.129C124.137 120.021 124.502 119.876 124.831 119.767L124.978 119.84L125.124 119.912L125.49 120.129L125.782 120.274C125.782 120.274 125.965 120.346 126.038 120.383C126.075 120.383 126.111 120.419 126.148 120.419C127.025 120.817 128.305 121.251 129.95 121.541C131.084 121.758 132.4 121.867 133.863 121.83H133.899C134.85 121.794 135.837 121.686 136.934 121.505C137.665 121.36 138.433 121.179 139.201 120.962C139.201 120.962 144.21 116.256 139.969 108.22C139.969 108.184 139.969 108.148 139.932 108.148C139.896 108.148 139.896 108.112 139.896 108.112V108.075C138.177 105.686 133.46 103.551 131.705 103.261C126.587 102.356 103.369 102.139 95.7269 108.437C88.0486 114.736 86.9883 119.55 86.9883 119.55C86.9883 119.55 88.0486 149.341 97.1529 150.644C100.553 151.114 105.197 145.286 105.197 145.286L109.731 134.536C110.791 135.368 111.449 136.889 111.851 138.481C112.729 142.029 112.4 145.829 111.12 149.268L110.352 151.295C110.352 151.295 107.939 166.643 118.031 174.136C128.122 181.593 139.896 179.348 139.896 179.348C141.98 178.769 139.713 166.426 138.287 165.159C137.007 164.073 138.214 163.023 138.214 163.023Z" fill="#434444"></path><path d="M111.814 138.409C111.412 136.744 110.754 135.26 109.694 134.427C109.694 134.427 105.928 131.387 103.441 132.255C100.955 133.088 100.589 139.567 102.747 141.739C103.77 142.753 104.648 144.02 105.233 145.033C105.891 146.191 106.293 147.06 106.293 147.06C105.964 152.526 110.169 151.223 110.388 151.151L111.12 149.196C112.399 145.721 112.765 141.956 111.814 138.409Z" fill="#A76646"></path><path d="M134.155 160.236L131.084 162.806C137.336 164.399 138.689 162.951 138.725 162.082C138.798 160.924 136.751 160.851 136.751 160.851L134.155 160.236Z" fill="#743D34"></path><path d="M134.63 158.064C132.875 158.861 131.193 161.105 129.182 162.698C127.171 164.29 125.928 163.82 125.928 163.82C128.122 165.195 132.436 162.77 133.935 161.901C135.471 160.996 138.323 161.467 139.712 160.743C141.138 159.983 139.932 157.919 139.932 157.919C138.944 157.087 136.275 157.268 134.63 158.064Z" fill="#606060"></path><path d="M130.865 133.341L125.088 136.599L130.39 132.617C131.779 131.604 133.497 131.097 135.216 131.242L139.713 131.604C140.554 131.676 141.322 132.183 141.724 132.907L142.638 134.572L130.865 133.341Z" fill="#434444"></path><path d="M110.828 142.572C109.95 140.617 106.367 142.137 106.404 142.174C104.173 141.812 104.283 138.119 104.429 136.49C104.466 136.02 104.758 135.586 105.197 135.405C109.365 133.812 111.449 139.965 111.449 139.965C111.449 139.965 108.488 131.314 103.405 134.825C103.259 134.934 103.149 135.079 103.113 135.26C102.857 136.708 103.771 143.947 109 145.214C109 145.214 107.939 141.269 110.828 142.572Z" fill="#743D34"></path><path d="M138.434 155.096C138.945 153.033 141.468 154.264 141.468 154.264L138.434 155.096Z" fill="#471D1A"></path><path d="M136.423 140.219L138.105 140.183L137.483 143.259L132.51 142.21L131.633 140.979L136.423 140.219Z" fill="white"></path><path d="M138.792 141.627C138.881 140.672 138.463 139.853 137.86 139.798C137.257 139.743 136.696 140.473 136.608 141.429C136.519 142.384 136.936 143.203 137.54 143.258C138.143 143.313 138.704 142.583 138.792 141.627Z" fill="#441C10"></path><path d="M138.758 141.608C138.817 140.971 138.62 140.432 138.318 140.405C138.017 140.378 137.724 140.872 137.665 141.509C137.606 142.146 137.803 142.685 138.105 142.712C138.406 142.739 138.699 142.245 138.758 141.608Z" fill="black"></path><path d="M138.104 140.183L131.632 140.979L131.047 140.943L138.36 139.567L139.822 140.87L138.104 140.183Z" fill="black"></path><path d="M137.989 141.117C138.018 140.799 137.928 140.53 137.788 140.517C137.647 140.504 137.509 140.752 137.479 141.071C137.45 141.389 137.54 141.658 137.681 141.671C137.821 141.684 137.959 141.436 137.989 141.117Z" fill="white"></path><path d="M137.702 138.011L131.377 140.4L137.739 138.59L139.275 139.386L137.702 138.011Z" fill="#743D34"></path><path d="M231.486 280.34L220.773 268.322L191.486 267.309L189.146 267.236H188.634L183.99 284.503H190.389L198.506 284.466L198.616 285.299L199.347 285.408C200.042 286.602 214.923 296.556 214.923 296.556L226.367 284.032L227.281 284.901C227.464 285.082 227.647 285.227 227.866 285.299C228.634 285.625 229.512 285.516 230.17 284.937L233.168 282.222L231.486 280.34Z" fill="#A76646"></path><path d="M118.615 187.855L125.233 197.701L125.525 190.859C125.525 190.425 125.343 190.027 125.05 189.701L118.066 184.054L118.615 187.855Z" fill="#D84127"></path><path d="M90.5353 164.182L91.9979 162.263L89.1094 161.937L90.5353 164.182Z" fill="#202C64"></path><path d="M141.98 241.753C141.907 244.711 141.688 248.24 141.363 252.131C141.363 252.146 141.363 252.164 141.363 252.178C140.558 261.915 139.059 273.68 137.816 282.62V282.729C137.816 282.765 137.779 282.765 137.779 282.765C136.719 290.801 135.841 296.556 135.841 296.556L136.865 300.9L138.865 334.712L138.931 335.824C138.975 336.537 138.949 337.235 138.865 337.923C138.602 340.102 137.724 342.118 136.394 343.78C134.609 346.01 132.01 347.602 128.975 348.091C120.766 349.416 112.346 348.815 104.331 347.168C104.068 347.117 103.808 347.063 103.549 347.005C102.09 346.694 100.645 346.346 99.2195 345.97C91.6143 340.493 84.51 334.372 77.9944 327.686C75.2704 324.896 72.6525 322.007 70.1406 319.024C67.7895 316.234 65.5336 313.359 63.3763 310.413C64.1624 307.311 64.9998 304.668 65.8956 303.181C75.5117 287.181 71.6726 278.421 71.6726 278.421L70.5391 275.634L70.5281 275.609L70.21 274.802L70.5391 274.621L72.4404 273.462L70.5757 267.96L73.3179 265.318L73.5739 265.065L70.9779 254.06L60.5207 209.935C60.2282 208.813 60.3379 207.655 60.8132 206.605C66.5537 193.429 84.6526 171.711 87.468 168.381C87.6874 168.091 87.8336 167.946 87.8336 167.946L86.8464 167.548C86.8464 167.331 86.883 167.114 86.9561 166.86C87.3217 165.412 88.4186 163.241 88.894 162.336C88.9123 162.303 88.9305 162.274 88.9452 162.245C88.9634 162.216 88.9781 162.191 88.989 162.165C89.0731 162.017 89.1134 161.937 89.1134 161.937L91.1938 163.273L91.234 163.313L93.3181 164.616L97.2451 167.153L97.5229 167.331L110.412 175.526L110.503 175.584L115.147 178.577L115.183 178.603L115.22 178.625L119.498 181.339L119.79 185.357L119.797 185.448L120.009 188.543C120.009 188.543 120.009 188.579 120.046 188.651C120.05 188.655 120.053 188.662 120.057 188.666C120.287 189.01 121.048 190.201 122.13 192.09C122.935 193.502 123.958 195.275 125.092 197.375C125.143 197.462 125.191 197.552 125.242 197.643C126.518 199.934 127.929 202.595 129.443 205.519L129.479 205.556C130.211 207.04 130.979 208.524 131.71 210.044C132.149 210.913 132.551 211.782 132.953 212.687C133.282 213.338 133.575 213.953 133.867 214.569C135.403 217.935 136.865 221.374 138.108 224.704C140.485 231.111 142.057 237.156 141.984 241.753H141.98Z" fill="#202C64"></path><path d="M104.21 234.188L84.9043 205.519L81.5039 208.85C84.0268 215.039 99.7491 254.314 95.7637 265.716C91.376 278.096 84.5752 275.562 84.5752 275.562C84.5752 275.562 100.444 297.642 101.358 299.814C102.016 301.298 103.296 312.483 103.99 318.999H104.502V293.878L114.448 282.765L137.885 282.729L104.21 234.188Z" fill="#1A2651"></path><path d="M106.404 290.656L105.344 292.973L104.868 294.023L104.327 347.168C104.064 347.117 103.804 347.063 103.545 347.005L104.173 293.769L105.709 290.548L102.601 251.527L102.528 250.73L100.81 229.12L97.2264 184.742L97.1898 184.67L90.9375 170.48L91.23 170.335L91.5591 170.19L91.7419 170.625L97.8846 184.633V184.67L101.541 230.242L103.333 252.287L106.404 290.656Z" fill="#121A36"></path><path d="M192.875 267.345C192.839 267.273 191.486 267.2 191.486 267.2H188.634L183.99 284.466H190.389C193.168 275.779 193.058 268.25 192.875 267.345Z" fill="#743D34"></path><path d="M81.2849 209.067L81.5043 208.85C81.2484 208.307 81.1387 208.017 81.1387 208.017L81.2849 209.067Z" fill="#1A2651"></path><path d="M188.952 277.202C191.413 270.218 192.31 264.178 190.956 263.71C189.603 263.243 186.51 268.525 184.05 275.51C181.589 282.494 180.691 288.534 182.045 289.002C183.399 289.469 186.491 284.187 188.952 277.202Z" fill="#30407B"></path><path d="M94.1545 185.213C104.721 181.52 114.557 197.158 114.557 197.158L139.054 251.527L179.42 262.096L172.035 286.964L117.299 280.159L76.4395 208.017C76.4395 208.017 78.4322 190.787 94.1545 185.213Z" fill="#30407B"></path><path d="M120.005 188.543L119.53 179.348L93.5333 165.123L88.9629 164.507L107.793 179.204L119.676 190.678L121.139 191.221C120.407 189.592 120.005 188.543 120.005 188.543Z" fill="#EDE2DB"></path><path d="M119.164 187.167C114.337 180.181 108.085 174.245 100.919 169.611L89.1085 161.974C89.1085 161.974 87.0244 165.159 86.6953 168.019C86.6953 168.019 105.452 176.489 113.643 189.049L120.626 191.619L113.899 192.307C121.065 197.013 129.767 208.524 133.899 214.714C128.926 204.216 119.31 187.384 119.31 187.384C119.237 187.312 119.2 187.24 119.164 187.167Z" fill="#30407B"></path><path d="M139.055 251.563L135.947 250.296L137.154 247.436L138.58 247.69L137.885 249.319H140.408L140.956 253.119L139.055 251.563Z" fill="#30407B"></path><path d="M137.795 248.984L121.674 253.335L121.857 253.998L137.978 249.647L137.795 248.984Z" fill="#202C64"></path><path d="M141.102 252.613L140.59 252.142L133.643 258.875L134.154 259.345L141.102 252.613Z" fill="#202C64"></path><path d="M176.203 285.552C177.071 285.552 177.775 284.855 177.775 283.996C177.775 283.136 177.071 282.439 176.203 282.439C175.335 282.439 174.631 283.136 174.631 283.996C174.631 284.855 175.335 285.552 176.203 285.552Z" fill="white"></path><path d="M141.432 131.749C142.017 132.219 142.638 134.572 142.638 134.572C142.711 131.676 141.432 131.785 141.432 131.749Z" fill="#434444"></path><path d="M104.867 119.984L110.242 124.509L116.312 127.043L116.348 126.572C116.458 125.486 115.836 124.473 114.812 124.038L104.867 119.984Z" fill="#252626"></path><path d="M79.5654 283.887L70.4611 274.548L69.9492 275.019L79.0535 284.358L79.5654 283.887Z" fill="#121A36"></path><path d="M114.3 302.276L132.253 303.687L130.937 299.85L113.094 298.692L114.3 302.276Z" fill="#30407B"></path><path d="M116.385 121.034C106.44 118.898 99.8949 109.016 99.8218 108.908L99.5293 109.089C99.6024 109.197 106.22 119.188 116.312 121.396L116.385 121.034Z" fill="#252626"></path><path d="M105.599 131.712C95.7639 127.875 90.3891 119.948 90.3159 119.876L90.0234 120.093C90.0966 120.165 96.5317 128.636 106.477 132.509L105.599 131.712Z" fill="#252626"></path><path d="M138.213 131.785C140.407 132.255 141.43 134.463 141.43 134.463L138.213 131.785Z" fill="#252626"></path><path d="M79.5668 271.109L73.8263 264.847L73.3145 265.318L79.0549 271.58L79.5668 271.109Z" fill="#121A36"></path><path d="M137.738 169.105L137.592 169.177C137.592 169.213 139.201 171.928 138.652 174.86L138.835 174.896C139.383 171.892 137.738 169.105 137.738 169.105Z" fill="#252626"></path><path d="M133.533 165.485C133.533 165.485 137.884 171.023 136.605 177.864L133.533 165.485Z" fill="#252626"></path><path d="M113.715 158.426C113.715 158.426 111.777 166.462 119.858 175.331L113.715 158.426Z" fill="#252626"></path><path d="M128.379 176.996C125.161 175.548 123.37 172 122.456 169.249C121.322 165.847 121.03 162.517 121.249 160.851C121.688 157.34 118.324 154.589 118.287 154.553L118.178 154.698C118.214 154.698 121.505 157.413 121.066 160.815C120.847 162.48 121.103 165.883 122.273 169.286C123.223 172.037 125.015 175.656 128.269 177.104L128.379 176.996Z" fill="#252626"></path><path d="M133.971 177.828C130.535 175.656 128.487 169.684 128.45 169.611L128.268 169.648C128.268 169.72 130.352 175.765 133.862 177.937L133.971 177.828Z" fill="#252626"></path><path d="M115.033 155.096C113.241 153.54 113.753 149.666 113.753 149.666L115.033 155.096Z" fill="#252626"></path><path d="M127.646 108.365C127.646 108.365 133.387 110.826 132.29 117.74L127.646 108.365Z" fill="#252626"></path><path d="M125.585 140.088L125.541 140.264L128.734 141.053L128.779 140.877L125.585 140.088Z" fill="#582723"></path><path d="M128.598 141.594L128.561 141.45L126.367 141.956L126.404 142.137L128.598 141.594Z" fill="#582723"></path><path d="M137.519 143.151L132.546 142.137L132.51 142.282L137.482 143.332L137.519 143.151Z" fill="black"></path><path d="M226.514 283.887L222.602 280.593L222.383 280.883L226.295 284.177L226.514 283.887Z" fill="#512A15"></path><path d="M223.077 287.652L217.958 283.272L217.738 283.525L222.821 287.941L223.077 287.652Z" fill="#512A15"></path><path d="M213.727 287.673L213.486 287.945L218.712 292.477L218.953 292.205L213.727 287.673Z" fill="#512A15"></path><path d="M135.8 106.519C141.687 116.473 134.484 121.505 133.936 121.758C134.886 121.758 135.069 121.758 136.166 121.577C142.016 115.858 135.8 106.555 135.8 106.519Z" fill="#252626"></path><path d="M111.412 109.016C113.898 116.763 121.028 119.622 123.807 120.093C124.136 119.984 124.502 119.84 124.831 119.731C120.59 117.668 112.034 109.958 111.412 109.016Z" fill="#252626"></path><path d="M201.286 289.679C202.09 289.896 203.004 289.534 203.004 289.534L203.114 289.751C203.114 289.751 202.456 291.561 203.809 292.032C205.162 292.539 206.259 291.597 206.259 291.597L206.734 291.923C206.697 292.177 206.734 292.43 206.88 292.719C207.611 294.204 209.367 293.769 209.367 293.769C208.964 294.457 208.818 295.217 209.878 295.579C212.036 296.303 213.096 295.362 213.096 295.362L212.145 294.638C214.229 292.43 212.474 291.525 212.474 291.525L210.39 293.299L209.586 292.683C211.304 291.018 210.025 289.1 210.025 289.1L207.392 291.199L206.661 290.656L208.087 289.606C209.44 287.688 207.685 286.602 207.685 286.602C207.502 287.217 204.54 288.991 204.54 288.991L203.699 288.376C203.699 288.376 204.833 287.579 205.162 286.674C205.674 285.19 204.174 284.43 204.174 284.43C203.699 285.625 200.335 287.76 200.335 287.76C199.421 288.593 200.591 289.462 201.286 289.679Z" fill="#F0CFA6"></path><path d="M264.028 246.206L269.476 249.97L276.825 259.418L277.008 266.657L260.664 248.92L264.028 246.206Z" fill="#5B945C"></path><path d="M275.474 257.68L274.45 255.979L270.428 249.282L268.198 248.884L267.796 248.812L262.201 247.834C262.201 247.834 262.019 248.486 261.653 249.5C261.616 249.536 261.251 250.622 260.958 251.418C260.885 251.527 260.848 251.671 260.812 251.816C260.702 252.106 260.629 252.287 260.629 252.323C259.496 255.472 257.997 259.2 257.229 259.888C257.229 259.888 251.013 262.386 243.7 264.594C237.85 266.331 227.832 269.191 227.832 269.191C227.429 269.553 226.113 272.304 231.525 280.304L233.828 280.05C243.737 279.037 261.507 277.082 267.064 277.118C270.318 277.155 272.403 274.114 273.792 270.494C274.011 269.879 274.231 269.263 274.414 268.648C274.816 267.345 275.108 266.042 275.364 264.811C275.474 264.304 275.584 263.798 275.657 263.327C275.766 262.712 275.84 262.132 275.913 261.626C276.132 259.997 276.205 258.911 276.205 258.911L275.474 257.68Z" fill="#F0CFA6"></path><path d="M275.437 257.716L274.413 256.015L270.391 249.319L268.16 248.92L267.758 248.848L262.164 247.871C262.164 247.871 261.981 248.522 261.616 249.536C261.579 249.572 261.213 250.658 260.921 251.454C260.848 251.563 260.811 251.708 260.775 251.852C260.665 252.142 260.592 252.323 260.592 252.359C260.592 252.359 271.524 258.332 274.413 268.648C274.815 267.345 275.108 266.042 275.363 264.811C275.473 264.304 275.583 263.798 275.656 263.327C275.766 262.712 275.839 262.132 275.912 261.626C276.131 259.997 276.204 258.911 276.204 258.911L275.437 257.716Z" fill="#E5AB8C"></path><path d="M283.554 207.438C283.554 207.076 283.627 206.642 283.298 206.859L274.742 215.076L264.394 241.065V241.102C264.394 241.102 263.553 240.921 263.298 241.029C261.945 241.645 260.628 248.558 260.628 248.558C260.555 248.776 260.665 249.029 260.848 249.138C262.932 250.187 273.316 255.87 276.972 266.512C277.082 266.838 277.557 266.947 277.777 266.657L282.018 261.228L283.736 259.02L284.285 233.5L283.554 207.438Z" fill="#68A668"></path><path d="M330.698 300.813C329.502 302.728 328.266 304.614 326.987 306.475C324.5 310.102 321.86 313.624 319.085 317.03C319.005 317.128 318.928 317.225 318.844 317.323C317.542 318.916 316.211 320.479 314.847 322.018C313.177 323.907 311.462 325.753 309.703 327.56C309.663 327.603 309.623 327.643 309.579 327.686H274.924C275.136 315.977 276.683 309.696 277.955 306.475C278.854 304.198 279.619 303.452 279.673 303.401V303.376C279.893 297.136 280.405 292.734 280.478 292.108V292.032L288.997 285.263L308.485 285.806L318.467 289.99L318.504 290.005L320.427 290.794L320.442 290.801L326.657 293.407C327.608 294.891 328.522 296.448 329.363 298.077C329.367 298.084 329.37 298.091 329.374 298.099C329.407 298.167 329.444 298.269 329.509 298.366C329.513 298.374 329.517 298.384 329.52 298.392C329.93 299.188 330.317 299.995 330.694 300.813H330.698Z" fill="#D77C40"></path><path d="M264.357 241.065V241.102C264.357 241.102 263.516 240.921 263.26 241.029C261.908 241.645 260.591 248.558 260.591 248.558C260.518 248.775 260.628 249.029 260.811 249.137C262.895 250.187 273.279 255.87 276.935 266.512C277.045 266.838 277.52 266.947 277.74 266.657L281.981 261.227C281.908 252.106 268.306 243.382 264.357 241.065Z" fill="#9FE5A5"></path><path d="M332.475 212.686L329.769 205.519L312.475 193.212L294.924 194.732L291.816 195.022L273.059 221.193L277.081 219.274L278.324 221.808C278.324 221.808 267.392 242.984 268.123 248.377C268.416 250.622 269.22 252.214 270.244 253.481C270.756 254.133 271.304 254.712 271.889 255.255C272.438 255.762 273.023 256.305 273.571 256.848C273.595 256.872 273.62 256.896 273.644 256.92C274.083 257.354 274.485 257.789 274.887 258.259C275.545 259.056 277.374 262.132 277.374 262.132C279.129 264.847 280.408 268.286 280.957 274.078C281.066 275.019 281.14 276.032 281.176 277.118C281.213 277.516 281.213 277.915 281.213 278.313V280.955L279.933 290.873C279.933 291.561 280.335 292.177 281.03 292.43C285.564 293.95 303.846 298.583 330.61 287L335.254 261.807L340.994 259.562C340.994 259.562 335.144 219.817 332.475 212.686Z" fill="#80CC87"></path><path d="M316.424 269.119C316.424 269.119 316.314 261.336 315.144 254.495L310.501 253.481L308.855 253.192C309.477 251.346 309.111 247.69 309.111 245.518C309.001 245.554 309.111 243.853 309.111 243.853C290.025 254.531 282.383 253.735 276.716 252.07C271.963 250.73 270.537 251.78 270.244 253.409V253.481C270.756 254.133 271.304 254.712 271.889 255.255C272.438 255.762 273.023 256.305 273.571 256.848C273.596 256.872 273.62 256.896 273.645 256.92C274.083 257.354 274.485 257.789 274.888 258.259C275.546 259.056 277.374 262.132 277.374 262.132C279.129 264.847 280.409 268.286 280.957 274.078C285.564 271.435 290.902 278.82 305.82 282.041C318.691 284.828 321.689 273.788 321.689 273.788L316.424 269.119Z" fill="#68A668"></path><path d="M336.684 262.056V262.104C336.684 262.361 336.684 262.618 336.68 262.875C336.658 265.712 336.527 268.597 336.446 271.178C336.42 272.105 336.395 273.003 336.388 273.861C336.351 280.159 336.059 289.389 336.059 289.389C336.059 289.389 336.099 290.352 336.143 291.413C335.25 293.081 334.333 294.732 333.382 296.365C333.287 296.527 333.188 296.694 333.093 296.86C332.314 298.189 331.517 299.51 330.698 300.813C329.503 302.728 328.267 304.614 326.987 306.475C324.501 310.102 321.861 313.624 319.086 317.03C319.005 317.128 318.929 317.225 318.844 317.323C317.543 318.916 316.212 320.479 314.848 322.018C314.863 319.821 314.987 317.406 315.181 314.912C315.192 314.757 315.203 314.605 315.217 314.449C315.426 311.817 315.711 309.106 316.029 306.475C316.197 305.063 316.376 303.677 316.559 302.334C316.574 302.214 316.592 302.098 316.607 301.982C317.192 297.715 317.799 293.947 318.219 291.456C318.314 290.899 318.398 290.406 318.471 289.99C318.654 288.937 318.764 288.34 318.764 288.34C318.545 287.967 318.322 287.493 318.102 286.942C318 286.693 317.897 286.425 317.799 286.142C317.78 286.088 317.758 286.037 317.74 285.983C317.678 285.799 317.612 285.603 317.546 285.408C317.506 285.292 317.47 285.169 317.433 285.049C317.115 284.036 316.793 282.885 316.479 281.647C316.431 281.469 316.387 281.292 316.343 281.111C316.314 281.006 316.289 280.901 316.267 280.796C316.164 280.383 316.066 279.96 315.967 279.533C315.718 278.465 315.477 277.354 315.243 276.228C315.195 276.003 315.148 275.779 315.104 275.551C315.097 275.522 315.089 275.493 315.086 275.46C314.98 274.932 314.874 274.403 314.768 273.875C314.746 273.763 314.724 273.651 314.702 273.535C313.919 269.499 313.258 265.524 312.822 262.777C312.811 262.708 312.8 262.639 312.793 262.574C312.782 262.523 312.775 262.473 312.768 262.422C313.766 262.777 314.896 263.106 316.157 263.374C320.808 264.359 327.217 264.493 335.25 261.836C335.722 261.676 336.197 261.513 336.68 261.336C336.68 261.456 336.684 261.575 336.68 261.698C336.684 261.818 336.684 261.937 336.684 262.056Z" fill="#F0CFA6"></path><path d="M306.772 177.937L299.752 176.163L290.428 179.457L288.49 182.28L287.978 183.041C287.978 183.041 288.271 183.004 288.746 183.041C290.355 183.077 293.975 183.765 293.39 188.941C293.353 189.267 293.317 189.556 293.244 189.918C292.805 192.126 291.452 195.891 289.66 200.271C285.273 211.275 278.472 226.152 278.289 229.699C278.289 229.699 298.106 202.008 299.423 199.836C300.776 197.701 311.306 179.131 311.306 179.131L306.772 177.937Z" fill="#F0CFA6"></path><path d="M286.077 221.736L285.857 220.505L288.636 218.659L294.194 212.18L297.814 210.985L297.96 218.623C294.925 213.193 286.077 221.736 286.077 221.736Z" fill="#71B575"></path><path d="M310.354 182.172L307.502 185.719C304.357 191.257 300.189 198.533 299.385 199.836C298.105 201.9 279.494 227.998 278.324 229.627C279.385 228.505 292.072 214.641 294.705 214.858C297.447 215.076 298.69 221.483 298.69 221.483C298.69 221.483 305.271 197.918 313.535 189.592L310.354 182.172Z" fill="#9FE5A5"></path><path d="M307.795 226.514L307.283 226.586C307.32 226.767 309.696 242.767 308.526 253.952L309.038 253.988C310.172 242.731 307.795 226.695 307.795 226.514Z" fill="#558E55"></path><path d="M332.403 212.65C329.77 209.103 325.712 206.026 321.032 206.207C316.79 207.619 312.915 210.297 310.318 213.917C309.404 215.076 308.819 216.451 308.234 217.79C308.893 216.487 309.587 215.184 310.538 214.062C313.207 210.659 317.046 208.126 321.141 206.678C325.346 206.497 329.661 209.393 332.403 212.65Z" fill="#558E55"></path><path d="M273.061 221.121L277.083 219.202L279.788 224.632C282.567 216.922 288.783 203.311 291.744 194.986L273.061 221.121Z" fill="#9FE5A5"></path><path d="M279.824 224.125L277.264 219.094L276.789 219.347L279.349 224.342L279.824 224.125Z" fill="#558E55"></path><path d="M299.752 176.163L290.428 179.457L288.49 182.28L288.783 183.041C290.392 183.077 294.011 183.765 293.426 188.941C293.39 189.267 293.353 189.556 293.28 189.918C292.841 192.126 291.488 195.891 289.697 200.271V200.343C295.291 200.126 304.103 182.099 306.772 177.973L299.752 176.163Z" fill="#E5AB8C"></path><path d="M329.378 298.099C330.716 297.566 332.054 296.987 333.382 296.365C333.287 296.528 333.188 296.694 333.093 296.861C331.908 297.407 330.72 297.918 329.524 298.392C325.191 300.126 320.818 301.403 316.559 302.334C314.098 302.877 311.674 303.3 309.316 303.626C309.191 303.644 309.071 303.658 308.95 303.677C306.566 303.999 304.255 304.223 302.043 304.375C299.385 304.556 296.873 304.629 294.559 304.629C292.58 304.629 290.749 304.578 289.092 304.495C286.547 304.368 284.423 304.172 282.836 303.991C280.833 303.763 279.688 303.557 279.641 303.543L279.674 303.401V303.376L279.714 303.217C279.856 303.253 286.964 304.498 297.191 304.256C302.91 304.122 309.608 303.521 316.606 301.983C320.804 301.059 325.111 299.8 329.378 298.099Z" fill="#8C4A26"></path><path d="M319.085 317.03C319.005 317.128 318.928 317.225 318.844 317.323C317.421 316.599 316.211 315.777 315.18 314.912C313.253 313.305 311.955 311.553 311.085 310.022C310.361 308.744 309.878 307.517 309.557 306.475C309.151 305.164 309.005 304.143 308.95 303.676C308.935 303.499 308.928 303.405 308.928 303.398L309.293 303.362C309.293 303.362 309.293 303.459 309.315 303.626C309.366 304.089 309.52 305.132 309.944 306.475C310.259 307.47 310.727 308.632 311.414 309.841C312.233 311.282 313.44 312.929 315.217 314.449C316.288 315.379 317.564 316.262 319.085 317.03Z" fill="#8C4A26"></path><path d="M301.652 143.549L295.437 141.413L289.842 140.002C289.842 140.002 282.712 139.531 280.299 148.182C277.886 156.834 283.297 160.381 277.447 165.593C276.241 166.679 275.254 167.367 274.486 167.765C274.486 167.765 274.449 168.272 274.522 168.924C274.669 169.901 275.107 171.276 276.497 171.928C276.606 171.964 276.753 172.037 276.899 172.073C277.886 172.435 278.179 172.833 278.105 173.195C278.032 173.81 277.009 174.281 277.009 174.281C277.009 174.281 278.617 177.358 281.177 176.851L278.654 178.914C278.654 178.914 279.349 179.674 278.946 180.76C278.581 181.81 278.508 185.031 281.579 185.357C283.992 185.647 291.195 184.271 296.387 180.76C296.607 180.652 296.789 180.471 297.009 180.326C298.106 179.566 299.093 178.661 299.897 177.647L305.565 161.032L301.652 143.549Z" fill="#F0CFA6"></path><g opacity="0.73"><path d="M290.903 162.046L287.576 159.91C287.576 159.91 286.333 174.317 296.388 180.76C296.607 180.652 296.79 180.471 297.01 180.326L297.595 166.317L290.903 162.046Z" fill="#F7D2DF"></path></g><path d="M282.128 176.38C281.141 177.249 280.41 177.14 278.509 176.597C276.571 176.018 277.009 174.317 277.009 174.317C280.3 177.901 282.128 176.344 282.128 176.38Z" fill="#AD594D"></path><path d="M278.618 176.597C278.033 176.959 276.972 177.756 277.887 178.625C278.91 179.566 279.934 177.901 281.36 176.851C280.665 177.14 279.934 176.959 278.618 176.597Z" fill="#DC8475"></path><g opacity="0.73"><path d="M289.88 154.77L285.894 152.236L284.359 152.381L283.262 153.141C283.262 153.141 284.468 153.902 284.651 157.159C286.991 157.196 288.198 159.042 288.198 159.042L287.54 158.969L284.688 158.064V158.209C284.688 158.643 284.688 159.005 284.688 159.259L283.92 163.494C283.92 163.494 285.017 166.462 290.428 162.082L289.88 154.77Z" fill="#F7D2DF"></path></g><path d="M291.781 154.987L292.366 152.852L283.445 149.485C282.567 151.44 283.225 153.141 283.225 153.141L291.781 154.987Z" fill="#482D17"></path><path d="M283.224 153.141C282.493 151.911 282.53 149.703 282.53 149.703C281.762 151.838 283.224 153.141 283.224 153.141Z" fill="#482D17"></path><path d="M284.834 158.354C287.978 158.426 289.587 161.503 289.587 161.539C288.636 162.842 287.283 163.603 286.187 164.001C285.126 164.435 283.846 163.892 283.408 162.842C282.347 160.236 284.834 158.354 284.834 158.354Z" fill="white"></path><path d="M285.616 161.007C285.758 159.515 285.319 158.253 284.636 158.189C283.952 158.125 283.283 159.284 283.14 160.776C282.998 162.269 283.437 163.531 284.12 163.595C284.804 163.659 285.473 162.5 285.616 161.007Z" fill="black"></path><path d="M284.578 158.209C283.956 158.173 283.335 159.295 283.188 160.743V160.96C283.115 162.299 283.517 163.422 284.102 163.458C284.614 163.494 285.163 162.661 285.382 161.503C285.419 161.358 285.455 161.141 285.455 160.96C285.565 159.476 285.199 158.281 284.578 158.209Z" fill="#5A2E19"></path><path d="M284.321 161.286L283.151 160.96C283.078 162.299 283.48 163.422 284.065 163.458C284.577 163.494 285.126 162.661 285.345 161.503C284.723 162.046 284.321 161.25 284.321 161.286Z" fill="#935025"></path><path d="M289.586 161.467L290.244 160.381C287.575 157.196 283.15 157.883 283.15 157.883C288.342 158.824 289.586 161.503 289.586 161.467Z" fill="black"></path><path d="M284.376 160.843C284.45 160.066 284.232 159.411 283.891 159.379C283.549 159.347 283.212 159.951 283.138 160.727C283.064 161.503 283.281 162.158 283.623 162.19C283.965 162.222 284.302 161.619 284.376 160.843Z" fill="black"></path><path d="M284.522 159.983C284.564 159.545 284.451 159.176 284.27 159.159C284.089 159.142 283.908 159.484 283.867 159.921C283.825 160.359 283.938 160.728 284.119 160.745C284.3 160.762 284.48 160.42 284.522 159.983Z" fill="white"></path><path d="M325.492 141.377C314.816 131.495 299.459 134.174 290.538 134.862C281.945 135.513 282.421 142.97 282.457 143.44C282.677 143.115 284.651 140.472 287.32 141.884C287.576 142.029 287.722 142.391 287.832 142.934C288.563 147.857 283.262 167.838 296.607 179.964C297.594 180.869 298.691 181.738 299.898 182.534C300.081 183.837 300.19 185.068 300.227 186.262C300.556 197.303 295.181 204.832 295.181 204.832C300.519 203.963 305.273 202.841 309.514 201.61C310.172 200.777 311.306 199.112 311.306 197.845C311.379 198.171 311.598 199.692 311.086 201.139C318.509 198.859 324.322 196.144 328.71 193.647C329.441 191.837 330.319 188.47 330.209 186.552C330.209 186.552 331.342 189.592 330.355 192.669C336.973 188.651 339.825 185.357 339.825 185.357C344.505 171.783 336.315 151.44 325.492 141.377Z" fill="#935025"></path><path d="M285.673 138.228C283.699 138.156 282.858 141.196 282.492 143.477C282.712 143.151 284.686 140.508 287.355 141.92C287.611 142.065 287.757 142.427 287.867 142.97C287.867 142.97 288.781 138.409 285.673 138.228Z" fill="#613817"></path><path d="M243.15 265.571C238.178 267.055 227.757 269.191 227.757 269.191L216.093 264.92C216.093 264.92 209.036 272.051 206.77 273.137C206.77 273.137 208.634 275.345 211.779 274.041C214.923 272.738 215.399 271.001 215.399 271.001L231.486 280.34C231.486 280.34 232.73 280.412 234.777 278.82C237.3 276.793 240.737 274.403 243.406 273.68L243.15 265.571Z" fill="#F0CFA6"></path><path d="M336.684 262.104C336.684 262.361 336.684 262.618 336.68 262.875C336.669 265.767 336.534 268.59 336.446 271.178C336.42 272.105 336.395 273.003 336.388 273.861C336.351 280.159 336.059 289.389 336.059 289.389C336.059 289.389 336.099 290.352 336.143 291.413C335.25 293.081 334.333 294.732 333.382 296.365C333.287 296.528 333.188 296.694 333.093 296.861C332.314 298.189 331.517 299.51 330.698 300.813C329.503 302.728 328.267 304.614 326.987 306.475C324.501 310.102 321.861 313.624 319.086 317.03C319.005 317.128 318.929 317.225 318.844 317.323C317.543 318.916 316.212 320.479 314.848 322.018C314.863 319.821 314.987 317.406 315.181 314.912C315.192 314.757 315.203 314.605 315.217 314.449C315.426 311.817 315.711 309.106 316.029 306.475C316.197 305.063 316.376 303.677 316.559 302.334C316.574 302.214 316.592 302.098 316.607 301.982C317.192 297.715 317.799 293.947 318.219 291.456C318.314 290.899 318.398 290.406 318.471 289.99C318.654 288.937 318.764 288.34 318.764 288.34C318.545 287.967 318.322 287.493 318.102 286.942C318 286.693 317.897 286.425 317.799 286.142C317.78 286.088 317.758 286.037 317.74 285.983C317.678 285.799 317.612 285.603 317.546 285.408C317.506 285.292 317.47 285.169 317.433 285.049C317.111 284.036 316.79 282.885 316.479 281.647C316.431 281.469 316.387 281.292 316.343 281.111C316.314 281.006 316.289 280.901 316.267 280.796C316.164 280.383 316.066 279.96 315.967 279.533C315.715 278.461 315.473 277.354 315.243 276.228C315.195 276.003 315.148 275.779 315.104 275.551C315.097 275.522 315.089 275.493 315.086 275.46C314.98 274.932 314.874 274.403 314.768 273.875C314.746 273.763 314.724 273.651 314.702 273.535C313.912 269.491 313.243 265.51 312.8 262.77C312.79 262.701 312.779 262.632 312.768 262.567C312.775 262.57 312.786 262.574 312.793 262.574C313.788 262.929 314.914 263.265 316.168 263.544C317.846 263.921 319.755 264.196 321.887 264.261C321.927 264.265 321.971 264.265 322.011 264.265C323.985 264.326 326.146 264.21 328.494 263.837C328.515 263.834 328.534 263.834 328.552 263.83C330.618 263.504 332.826 262.987 335.177 262.212C335.671 262.056 336.168 261.883 336.676 261.698C336.676 261.818 336.68 261.937 336.676 262.056C336.676 262.056 336.68 262.089 336.68 262.104H336.684Z" fill="#E5AB8C"></path><path d="M215.436 271.001L224.54 276.286C225.6 276.322 227.392 275.743 227.392 275.743C223.699 276.286 215.436 271.001 215.436 271.001Z" fill="#E5AB8C"></path><path d="M237.593 281.353C237.081 281.353 236.643 280.919 236.643 280.412C236.643 279.869 237.045 279.435 237.593 279.435C238.142 279.399 238.58 279.833 238.58 280.376C238.58 280.919 238.142 281.353 237.593 281.353Z" fill="#DC8475"></path><path d="M239.056 280.087C238.653 279.725 238.653 279.145 238.982 278.747C239.348 278.349 239.97 278.349 240.372 278.675C240.774 279.037 240.811 279.652 240.445 280.05C240.262 280.231 239.97 280.34 239.714 280.34C239.494 280.34 239.238 280.268 239.056 280.087Z" fill="#DC8475"></path><path d="M240.554 278.168C240.042 278.096 239.676 277.625 239.75 277.082C239.823 276.575 240.298 276.213 240.846 276.286C241.358 276.358 241.724 276.829 241.651 277.372C241.578 277.842 241.176 278.204 240.7 278.204C240.627 278.204 240.591 278.168 240.554 278.168Z" fill="#DC8475"></path><path d="M239.677 275.019C239.568 274.512 239.897 274.042 240.445 273.933C240.994 273.824 241.469 274.15 241.579 274.693C241.652 275.2 241.323 275.67 240.774 275.779C240.701 275.815 240.664 275.815 240.591 275.815C240.116 275.815 239.714 275.489 239.677 275.019Z" fill="#DC8475"></path><path d="M239.055 272.847C238.872 272.34 239.128 271.797 239.64 271.616C240.152 271.435 240.7 271.725 240.883 272.195C241.066 272.702 240.81 273.245 240.298 273.426C240.188 273.462 240.079 273.499 239.969 273.499C239.567 273.499 239.201 273.245 239.055 272.847Z" fill="#DC8475"></path><path d="M238.142 270.711C237.923 270.241 238.142 269.698 238.617 269.444C239.093 269.227 239.678 269.444 239.897 269.915C240.116 270.422 239.897 270.965 239.422 271.218C239.312 271.254 239.166 271.29 239.02 271.29C238.69 271.254 238.325 271.073 238.142 270.711Z" fill="#DC8475"></path><path d="M237.082 268.648C236.826 268.177 236.972 267.598 237.447 267.345C237.923 267.092 238.508 267.236 238.764 267.707C239.02 268.177 238.873 268.757 238.398 269.01C238.252 269.119 238.069 269.155 237.923 269.155C237.594 269.155 237.264 268.974 237.082 268.648Z" fill="#DC8475"></path><path d="M235.874 266.657C235.582 266.223 235.691 265.644 236.13 265.354C236.569 265.028 237.154 265.137 237.483 265.571V265.607C237.775 266.042 237.666 266.621 237.227 266.911C237.081 267.055 236.861 267.092 236.679 267.092C236.35 267.092 236.057 266.947 235.874 266.657Z" fill="#DC8475"></path><path d="M296.607 179.891L296.644 179.964C297.631 180.869 298.728 181.737 299.935 182.534C300.118 183.837 300.191 183.873 300.227 185.068C307.394 188.47 313.134 186.805 313.134 186.805C307.174 186.878 299.898 183.113 296.607 179.891Z" fill="#613817"></path><path d="M285.967 138.3C299.203 133.957 309.952 141.92 314.925 153.793C319.861 164.688 322.457 177.539 318.581 189.122C320.812 183.439 321.068 177.14 320.336 171.132C318.435 153.865 307.027 130.916 285.967 138.3Z" fill="#613817"></path><path d="M285.346 138.445C307.028 132.038 323.993 142.029 330.721 163.096C332.622 169.213 333.5 175.801 332.439 182.172C333.683 175.801 332.915 169.177 331.05 162.987C324.578 141.703 307.064 131.423 285.346 138.445Z" fill="#613817"></path><path d="M285.967 138.3C292.512 139.169 298.398 144.237 298.362 151.042C298.252 157.485 298.947 164.471 303.298 169.611C306.04 173.05 309.733 175.548 313.499 177.756C309.843 175.403 306.296 172.797 303.59 169.394C299.349 164.254 298.874 157.413 298.837 151.006C298.764 144.092 292.621 138.807 285.967 138.3Z" fill="#613817"></path><path d="M295.911 143.658C298.361 145.974 298.617 151.042 298.617 151.042C298.397 157.413 299.275 160.453 300.591 164.725C301.908 168.996 308.05 174.027 308.05 174.027C308.05 174.027 302.054 169.43 301.286 157.34C300.518 145.25 293.754 141.305 293.754 141.305L295.911 143.658Z" fill="#613817"></path><path d="M306.076 137.395C318.581 139.097 329.294 148.508 331.122 161.032C331.415 162.77 331.524 164.544 331.744 166.281C331.634 164.507 331.634 162.734 331.378 160.996C329.916 148.182 318.873 138.481 306.076 137.395Z" fill="#613817"></path><path d="M321.25 197.411C326.625 190.28 327.502 180.579 325.272 172.145C326.808 180.688 326.003 189.918 321.25 197.411Z" fill="#613817"></path><path d="M287.758 159.476C287.758 159.476 287.465 146.445 288.379 163.204C289.293 180.688 302.602 183.403 302.383 183.004C284.759 178.444 287.758 159.476 287.758 159.476Z" fill="#935025"></path><g opacity="0.73"><path d="M277.849 171.675C275.216 170.697 274.521 168.96 274.521 168.96C274.668 169.937 275.107 171.313 276.496 171.964C276.606 172 276.752 172.073 276.898 172.109C277.885 172.471 278.178 172.869 278.105 173.231C278.58 172.724 278.873 172.037 277.849 171.675Z" fill="#F7D2DF"></path></g><path d="M306.99 259.743C320.409 269.662 342.055 260.178 342.055 260.178L340.994 250.151C328.855 259.743 307.502 253.083 307.502 253.083L306.99 259.743Z" fill="#9FE5A5"></path><path d="M309.704 327.56C309.664 327.603 309.623 327.643 309.58 327.686C308.826 328.461 308.062 329.228 307.291 329.985L306.94 330.332C306.121 331.132 305.294 331.929 304.457 332.714C304.296 332.863 304.139 333.015 303.978 333.159C303.857 333.275 303.737 333.388 303.616 333.489C302.622 334.419 301.616 335.324 300.596 336.218C300.475 336.327 300.351 336.435 300.23 336.537C299.696 337.007 299.159 337.471 298.618 337.927C298.431 338.09 298.245 338.249 298.058 338.401C295.338 340.696 292.541 342.9 289.671 345.011C287.053 346.944 284.373 348.793 281.63 350.563C279.66 351.837 277.656 353.072 275.627 354.263H275.612C275.272 347.53 275.086 342.336 274.983 338.401C274.98 338.242 274.976 338.082 274.972 337.927C274.786 330.39 274.925 327.686 274.925 327.686L280.332 327.668L288.267 327.639L294.929 327.614H295.481L300.117 327.596H300.669L303.258 327.585L305.302 327.578H305.857L309.704 327.56Z" fill="#D77C40"></path><path d="M287.257 346.77C286.178 340.399 285.915 331.303 285.849 327.69V327.639C285.695 318.717 286.196 310.54 286.511 306.46C286.587 305.472 286.646 304.788 286.675 304.477C286.686 304.35 286.693 304.281 286.693 304.281L287.055 304.321C287.055 304.321 287.048 304.386 287.037 304.509C287.008 304.82 286.949 305.501 286.873 306.489C286.558 310.561 286.057 318.724 286.211 327.636V327.686C286.273 331.292 286.54 340.363 287.611 346.712L287.249 346.773L287.257 346.77Z" fill="#8C4A26"></path><path d="M302.637 333.8C298.995 321.008 299.562 304.462 299.569 304.299L299.935 304.314C299.928 304.48 299.364 320.968 302.992 333.706L302.641 333.804L302.637 333.8Z" fill="#8C4A26"></path><path d="M294.231 294.631H293.865V304.303H294.231V294.631Z" fill="#8C4A26"></path><path d="M193.787 377.096C183.648 377.096 173.498 376.162 163.615 374.316L163.528 374.298C162.983 374.193 162.438 374.088 161.893 373.98C154.025 372.427 146.189 370.258 138.61 367.533C137.483 367.127 136.306 366.689 135.107 366.226C122.218 361.249 109.995 354.632 98.7846 346.553C91.1684 341.069 83.9983 334.89 77.4644 328.186C74.7478 325.402 72.0933 322.474 69.5741 319.484C67.234 316.708 64.9488 313.797 62.7806 310.833C42.7328 283.435 32.1367 251.009 32.1367 217.063C32.1367 175.374 48.2393 135.904 77.4827 105.922C106.649 76.0151 145.776 58.6945 187.659 57.1452C189.656 57.0692 191.718 57.033 193.787 57.033C194.19 57.033 194.519 57.3588 194.519 57.757C194.519 58.1551 194.19 58.4809 193.787 58.4809C191.736 58.4809 189.692 58.5171 187.714 58.5931C146.211 60.1243 107.439 77.2892 78.5358 106.928C49.5592 136.639 33.5993 175.754 33.5993 217.063C33.5993 250.705 44.1003 282.834 63.9652 309.986C66.1151 312.921 68.3821 315.806 70.7002 318.557C73.1938 321.522 75.8264 324.421 78.5175 327.18C84.9929 333.822 92.1008 339.947 99.6475 345.38C110.759 353.383 122.869 359.942 135.641 364.872C136.829 365.328 137.995 365.766 139.11 366.165C146.621 368.865 154.387 371.011 162.186 372.553C162.727 372.662 163.264 372.767 163.805 372.868L163.89 372.883C173.681 374.711 183.74 375.637 193.787 375.637C222.501 375.637 250.673 368.029 275.255 353.629C277.269 352.449 279.276 351.208 281.229 349.948C283.203 348.674 285.145 347.36 286.991 346.039C287.708 345.532 288.458 344.989 289.229 344.421C294.344 340.66 299.299 336.544 303.95 332.179C305.719 330.517 307.434 328.83 309.05 327.172C309.101 327.122 309.131 327.093 309.16 327.06C310.926 325.243 312.652 323.39 314.293 321.529C315.643 320.005 316.981 318.434 318.271 316.856C318.334 316.78 318.385 316.722 318.432 316.661L318.516 316.559C321.288 313.16 323.931 309.624 326.378 306.055C327.639 304.22 328.882 302.323 330.07 300.419C330.846 299.184 331.624 297.896 332.454 296.484C332.524 296.365 332.601 296.234 332.674 296.108L332.743 295.988C333.654 294.424 334.579 292.763 335.489 291.062C347.573 268.424 353.965 242.832 353.965 217.056C353.965 207.438 353.087 197.798 351.358 188.409C351.285 188.014 351.548 187.638 351.946 187.565C352.341 187.497 352.725 187.754 352.798 188.148C354.542 197.625 355.427 207.347 355.427 217.056C355.427 243.067 348.981 268.894 336.784 291.739C335.862 293.458 334.93 295.134 334.008 296.712L333.939 296.832C333.866 296.955 333.796 297.078 333.723 297.201C332.882 298.634 332.096 299.934 331.314 301.179C330.114 303.097 328.86 305.012 327.584 306.866C325.116 310.467 322.447 314.033 319.646 317.468L319.569 317.562C319.511 317.634 319.452 317.703 319.394 317.776C318.103 319.354 316.754 320.943 315.39 322.478C313.73 324.353 311.993 326.228 310.224 328.045C310.195 328.077 310.147 328.124 310.1 328.172C308.469 329.844 306.739 331.545 304.955 333.221C300.26 337.626 295.262 341.782 290.103 345.575C289.324 346.151 288.564 346.697 287.843 347.208C285.979 348.536 284.019 349.865 282.026 351.153C280.055 352.428 278.026 353.676 275.997 354.867C251.188 369.397 222.76 377.078 193.784 377.078L193.787 377.096Z" fill="#00A151"></path><path d="M334.696 209.617C334.527 209.617 334.363 209.559 334.224 209.447C333.917 209.19 333.877 208.734 334.136 208.426C349.387 190.555 358.012 179.312 358.096 179.2C365.855 169.311 372.118 160.815 376.718 153.938C376.941 153.605 377.394 153.514 377.731 153.735C378.067 153.956 378.159 154.405 377.936 154.738C373.318 161.644 367.032 170.172 359.255 180.083C359.175 180.188 350.531 191.46 335.251 209.36C335.105 209.53 334.9 209.617 334.692 209.617H334.696Z" fill="#FFA633"></path></g></g><defs><clipPath id="clip0_1_215"><rect width="431" height="376" fill="white"></rect></clipPath><clipPath id="clip1_1_215"><rect width="403.372" height="377.096" fill="white" transform="translate(13.2617)"></rect></clipPath></defs></svg>